<svg width="160" height="55" viewBox="0 0 160 55" fill="none" xmlns="http://www.w3.org/2000/svg">
<g clip-path="url(#clip0_395_5656)">
<path d="M47.926 53.4084H7.07391C3.97906 53.4084 1.50317 50.9326 1.50317 47.8377V7.07404C1.50317 3.97918 3.97906 1.5033 7.07391 1.5033H47.926C51.0209 1.5033 53.4967 3.97918 53.4967 7.07404V47.9261C53.4083 50.9326 50.9324 53.4084 47.926 53.4084Z" fill="url(#paint0_linear_395_5656)"/>
<path d="M13.8826 15.032C14.7668 15.2089 15.5627 14.9436 16.27 14.5015C16.27 14.5015 16.27 14.5015 16.3585 14.413C16.4469 14.413 16.4469 14.3246 16.5353 14.2362C17.1543 13.7941 18.127 13.0867 18.2154 12.9983C20.9565 11.3182 27.5884 8.31176 34.4855 14.1478C35.9887 15.3857 37.0498 16.8005 37.8456 18.2153C37.934 17.8616 38.1109 17.4195 38.3762 17.0658C37.1382 14.6783 35.1045 12.2909 32.0096 10.2571C24.3167 5.12848 17.8617 6.80854 14.59 8.40018C13.8826 8.75388 13.2636 9.01915 12.8215 9.37285C12.4678 9.5497 12.2025 9.81497 12.0257 10.1687C11.5836 10.6108 11.4951 10.8761 11.4951 10.8761C11.4951 10.8761 11.4951 10.9645 11.4067 10.9645C11.4067 11.0529 11.3183 11.2298 11.3183 11.3182V11.4066C11.053 13.0867 12.2025 14.6783 13.8826 15.032Z" fill="white"/>
<path d="M43.151 21.0449C42.8857 21.1333 42.5321 21.3102 42.2668 21.3986C42.0899 21.487 41.9131 21.6639 41.7362 21.7523C40.9404 22.2828 40.4099 23.0787 40.1446 23.9629V24.0513C40.233 24.0513 40.233 24.0513 40.3214 24.0513C40.4983 24.0513 40.5867 24.0513 40.7636 24.0513C41.8247 24.1398 42.8857 24.5819 43.6816 25.2893C43.9468 25.2893 44.3005 25.2009 44.5658 25.1124C46.1575 24.5819 47.307 23.3439 47.6607 21.8407C46.3343 20.8681 44.7427 20.5144 43.151 21.0449Z" fill="white"/>
<path d="M43.4164 25.7313C43.2396 25.5544 43.0627 25.466 42.8859 25.2892C42.09 24.7586 41.2058 24.4933 40.2331 24.4049H40.1447C40.2331 24.5818 40.2331 24.7586 40.3215 24.9355C40.5868 25.9965 40.4984 27.0576 40.0563 28.1187C40.1447 28.384 40.3215 28.6493 40.4984 28.9146C41.4711 30.2409 43.0627 30.9483 44.5659 30.8599C45.0965 29.4451 44.9196 27.765 43.947 26.3502C43.8585 26.1734 43.5933 25.9965 43.4164 25.7313Z" fill="white"/>
<path d="M39.3488 25.0241C38.553 25.4662 37.6688 25.7315 36.6961 25.7315C36.5192 25.7315 36.4308 25.7315 36.254 25.7315C35.9887 25.9083 35.8119 26.1736 35.635 26.4389C34.6623 27.7652 34.4855 29.4453 35.016 30.9485C36.5192 31.0369 38.1109 30.3295 39.0836 29.0032C39.2604 28.7379 39.4373 28.4726 39.5257 28.2073C39.6141 28.0305 39.7025 27.8536 39.791 27.5884C40.0562 26.7041 40.0562 25.7315 39.791 24.8472V24.7588C39.6141 24.8472 39.5257 24.9356 39.3488 25.0241Z" fill="white"/>
<path d="M37.9339 21.7525C38.1992 22.6367 38.8182 23.4326 39.5256 23.9631L39.614 24.0515C39.7024 23.8747 39.7024 23.6978 39.7908 23.521C40.233 22.5483 40.9403 21.6641 41.8246 21.1335C41.913 20.8683 41.913 20.5146 41.913 20.1609C41.913 18.4808 41.0288 17.066 39.7908 16.1818C38.4645 16.9776 37.6686 18.4808 37.6686 20.1609C37.6686 20.5146 37.6686 20.7798 37.7571 21.1335C37.8455 21.3988 37.8455 21.5757 37.9339 21.7525Z" fill="white"/>
<path d="M32.0981 21.8406C32.4518 23.3438 33.6014 24.5818 35.193 25.1123C35.4583 25.2007 35.812 25.2892 36.0772 25.2892C36.2541 25.2892 36.5194 25.2892 36.6962 25.2892C37.6689 25.2892 38.5531 24.9355 39.2605 24.4049L39.3489 24.3165C39.1721 24.2281 39.0837 24.1396 38.9068 23.9628C38.111 23.2554 37.492 22.2827 37.2268 21.2216C36.9615 21.0448 36.6962 20.9564 36.3425 20.8679C34.9277 20.5142 33.3361 20.8679 32.0981 21.8406Z" fill="white"/>
<path d="M27.4115 38.4646C26.1736 37.4919 23.9629 36.0771 21.1334 36.254C21.1334 36.254 24.0514 39.2604 20.0723 42.7974C20.0723 42.7974 14.5015 46.9534 8.93079 38.9067C9.01921 39.4373 9.81503 44.2122 14.1478 47.2186C14.1478 47.2186 21.6639 52.6125 27.4999 47.5723C27.4999 47.5723 30.4179 44.7427 29.2684 41.1173C28.8263 39.9678 28.2073 39.172 27.4115 38.4646Z" fill="white"/>
<path d="M39.8794 29.3568C39.791 29.2684 39.7026 29.0915 39.6141 29.0031C39.6141 29.3568 39.5257 29.6221 39.4373 29.8874C39.172 30.86 38.9068 31.7443 38.4646 32.4517C35.9887 35.8118 32.717 30.0642 32.717 30.0642C32.0096 28.8263 31.1254 27.6767 30.0643 26.7925C28.2958 25.3777 25.6431 23.7861 21.8408 23.4324C21.4871 23.4324 21.045 23.4324 20.6913 23.4324C20.6913 23.4324 15.1206 23.5208 11.5836 27.7652C11.5836 27.7652 8.22347 31.479 8.75402 36.0771C8.75402 36.1655 8.75402 36.2539 8.75402 36.4308C8.75402 36.6076 8.75402 36.696 8.84244 36.8729V36.9613C8.84244 36.9613 8.84244 36.9613 8.84244 37.0497C8.93086 37.6687 9.10771 38.1993 9.37299 38.8182C9.37299 38.8182 11.672 43.3279 17.4196 43.0626C17.4196 43.0626 9.99196 40.0562 13.1752 32.2748C13.1752 32.2748 16.5354 24.405 25.0241 26.262C25.0241 26.262 29.7106 27.323 32.3633 31.5674C32.3633 31.5674 35.9887 37.315 38.9068 33.8665C39.6141 33.0706 40.1447 31.7443 40.41 30.1526C40.2331 29.9758 40.1447 29.7989 39.9678 29.6221C39.8794 29.4452 39.8794 29.3568 39.8794 29.3568Z" fill="white"/>
<path d="M21.4871 39.7911C21.4871 39.7911 22.1945 37.7574 20.3376 36.5194C20.3376 36.5194 18.3923 36.8731 17.6849 39.0837C17.6849 39.0837 19.8955 37.9342 21.4871 39.7911Z" fill="white"/>
<path d="M67.2911 33.8665H67.9985L67.2911 43.77H66.5837L67.2911 33.8665Z" fill="white"/>
<path d="M75.9566 37.2269L75.5145 43.7703H74.8071L74.8955 42.5324C74.365 43.3282 73.3923 43.8588 72.3312 43.8588C70.5627 43.8588 69.2363 42.5324 69.3248 40.5871C69.4132 38.6417 70.828 37.2269 72.7733 37.2269C73.8344 37.2269 74.6302 37.7575 75.1608 38.5533L75.2492 37.3154L75.9566 37.2269ZM72.4196 43.1514C73.746 43.1514 74.9839 42.0903 75.0724 40.5871C75.1608 39.0838 74.2765 37.8459 72.7733 37.8459C71.3585 37.8459 70.209 38.907 70.0322 40.5871C69.9437 42.0903 70.9164 43.1514 72.4196 43.1514Z" fill="white"/>
<path d="M77.4598 40.4984C77.5482 38.6415 79.0514 37.1383 80.9968 37.1383C82.8537 37.1383 84.18 38.4647 84.0916 40.4984C83.9148 42.4438 82.4116 43.8586 80.5546 43.8586C78.5209 43.8586 77.2829 42.3553 77.4598 40.4984ZM80.5546 43.1512C81.9694 43.1512 83.2074 42.0901 83.2958 40.4984C83.3842 38.9068 82.3231 37.8457 80.9083 37.8457C79.3167 37.8457 78.2556 39.0836 78.1672 40.4984C78.0788 42.0016 78.963 43.1512 80.5546 43.1512Z" fill="white"/>
<path d="M85.0642 42.9743L85.5064 42.4438C85.9485 42.8859 86.5675 43.2396 87.5401 43.2396C88.5128 43.2396 89.1318 42.7091 89.1318 42.0901C89.2202 41.3827 88.4244 41.2059 87.4517 40.8522C86.3906 40.4985 85.5948 40.0563 85.6832 38.9952C85.7716 38.0226 86.6559 37.3152 87.8054 37.3152C88.5128 37.3152 89.2202 37.492 89.9276 38.111L89.4855 38.6416C88.8665 38.111 88.3359 37.9342 87.717 37.9342C87.098 37.9342 86.479 38.2879 86.3906 38.9068C86.3022 39.6142 87.0096 39.7911 87.717 40.1448C89.0433 40.5869 90.016 40.8522 89.8392 42.1785C89.7507 43.1512 88.9549 43.947 87.4517 43.947C86.3906 43.8586 85.5948 43.5049 85.0642 42.9743Z" fill="white"/>
<path d="M97.6206 37.2269L97.1784 43.7703H96.471L96.5595 42.5324C96.0289 43.3282 95.0563 43.8588 93.9952 43.8588C92.2267 43.8588 90.9003 42.5324 90.9887 40.5871C91.0772 38.6417 92.4919 37.2269 94.4373 37.2269C95.4984 37.2269 96.2942 37.7575 96.8247 38.5533L96.9132 37.3154L97.6206 37.2269ZM94.0836 43.1514C95.41 43.1514 96.6479 42.0903 96.7363 40.5871C96.8247 39.0838 95.9405 37.8459 94.4373 37.8459C93.0225 37.8459 91.873 38.907 91.6961 40.5871C91.6077 42.0903 92.5804 43.1514 94.0836 43.1514Z" fill="white"/>
<path d="M105.844 40.5867C105.667 42.532 104.164 43.8584 102.396 43.8584C101.334 43.8584 100.45 43.4162 100.008 42.6204L99.7428 46.5111H99.0354L99.6543 37.315H100.362L100.273 38.6413C100.892 37.7571 101.865 37.315 102.838 37.315C104.783 37.2265 106.021 38.6413 105.844 40.5867ZM105.137 40.5867C105.225 38.9066 104.164 37.8455 102.838 37.8455C101.423 37.8455 100.273 39.0835 100.185 40.5867C100.096 42.1783 101.158 43.151 102.484 43.151C103.899 43.151 105.048 42.0899 105.137 40.5867Z" fill="white"/>
<path d="M113.979 40.5867C113.802 42.532 112.299 43.8584 110.531 43.8584C109.469 43.8584 108.585 43.4162 108.143 42.6204L107.878 46.5111H107.17L107.789 37.315H108.497L108.408 38.6413C109.027 37.7571 110 37.315 110.973 37.315C112.918 37.2265 114.156 38.6413 113.979 40.5867ZM113.272 40.5867C113.36 38.9066 112.299 37.8455 110.973 37.8455C109.558 37.8455 108.408 39.0835 108.32 40.5867C108.231 42.1783 109.293 43.151 110.619 43.151C112.034 43.151 113.183 42.0899 113.272 40.5867Z" fill="white"/>
<path d="M115.129 43.2396C115.129 42.8859 115.394 42.6206 115.748 42.6206C116.101 42.6206 116.367 42.8859 116.278 43.2396C116.278 43.5933 116.013 43.8585 115.659 43.8585C115.394 43.8585 115.129 43.5933 115.129 43.2396Z" fill="white"/>
<path d="M119.108 33.8665H119.815L119.108 43.77H118.4L119.108 33.8665Z" fill="white"/>
<path d="M127.773 37.2269L127.331 43.7703H126.624L126.712 42.5324C126.182 43.3282 125.209 43.8588 124.148 43.8588C122.379 43.8588 121.053 42.5324 121.142 40.5871C121.23 38.6417 122.645 37.2269 124.59 37.2269C125.651 37.2269 126.447 37.7575 126.978 38.5533L127.066 37.3154L127.773 37.2269ZM124.236 43.1514C125.563 43.1514 126.801 42.0903 126.889 40.5871C126.978 39.0838 126.093 37.8459 124.59 37.8459C123.175 37.8459 122.026 38.907 121.849 40.5871C121.761 42.0903 122.733 43.1514 124.236 43.1514Z" fill="white"/>
<path d="M67.0258 29.0032L67.9984 15.6511C68.0868 14.8553 67.9984 14.3248 67.8216 13.7942C67.6447 13.3521 67.2026 13.0868 66.4068 13.0868H66.1415L66.2299 12.291H69.2364C69.8553 12.291 70.2975 12.3794 70.5627 12.5563C70.9164 12.7331 71.0933 13.0868 71.1817 13.529C71.2701 13.9711 71.2701 14.6785 71.2701 15.4743L70.3859 27.6769H79.0515L78.9631 28.8264H67.0258V29.0032Z" fill="url(#paint1_linear_395_5656)"/>
<path d="M94.7026 29.1802C94.172 29.1802 93.553 29.0917 92.9341 29.0033C92.3151 28.8265 91.7846 28.5612 91.254 28.1191C90.7235 27.6769 90.2813 26.9695 89.9276 25.9969L89.4855 24.5821H82.7653L80.4662 29.0033H79.1399L87.717 12.3795H88.8665L93.553 25.82C93.8183 26.5274 94.172 27.1464 94.5257 27.5885C94.9678 28.0306 95.41 28.2959 95.9405 28.3843V29.0033C95.7637 29.0033 95.5868 29.0917 95.41 29.0917C95.1447 29.0917 94.8794 29.1802 94.7026 29.1802ZM83.4727 23.3441H89.1318L86.8328 16.8007L83.4727 23.3441Z" fill="url(#paint2_linear_395_5656)"/>
<path d="M104.429 29.5338C102.749 29.5338 101.334 29.1801 100.185 28.3842C98.9469 27.5884 98.0627 26.5273 97.5322 25.201C96.9132 23.8746 96.7363 22.3714 96.8248 20.6913C96.9132 19.0113 97.3553 17.508 98.1511 16.1817C98.9469 14.8553 100.008 13.7942 101.246 12.9984C102.572 12.2026 104.076 11.8489 105.667 11.8489C107.347 11.8489 108.762 12.2026 109.912 12.9984C111.061 13.7942 111.945 14.8553 112.564 16.1817C113.183 17.508 113.36 19.0113 113.272 20.6913C113.183 22.3714 112.741 23.8746 111.945 25.201C111.15 26.5273 110.088 27.5884 108.85 28.3842C107.613 29.1801 106.109 29.5338 104.429 29.5338ZM104.518 28.3842C105.579 28.3842 106.463 28.119 107.17 27.5C107.966 26.881 108.497 25.9968 109.027 24.8473C109.469 23.6978 109.735 22.283 109.912 20.6913C110 19.0113 109.912 17.6849 109.646 16.5354C109.381 15.3859 108.85 14.5016 108.232 13.9711C107.524 13.3521 106.728 13.0868 105.667 13.0868C104.695 13.0868 103.81 13.3521 103.014 13.9711C102.219 14.59 101.688 15.4743 101.158 16.5354C100.715 17.6849 100.45 19.0997 100.273 20.6913C100.185 22.283 100.273 23.6978 100.539 24.8473C100.804 25.9968 101.334 26.881 101.953 27.5C102.661 28.119 103.457 28.3842 104.518 28.3842Z" fill="url(#paint3_linear_395_5656)"/>
<path d="M129.453 29.1802C128.923 29.1802 128.304 29.0918 127.685 29.0033C127.066 28.8265 126.535 28.5612 126.005 28.1191C125.474 27.677 125.032 26.9696 124.678 25.9969L124.236 24.5821H117.516L115.129 29.1802H113.802L122.379 12.5564H123.529L128.215 25.9969C128.481 26.7043 128.834 27.3233 129.188 27.7654C129.63 28.2075 130.072 28.4728 130.603 28.5612V29.1802C130.426 29.1802 130.249 29.2686 130.072 29.2686C129.807 29.0918 129.63 29.1802 129.453 29.1802ZM118.135 23.3442H123.794L121.495 16.8008L118.135 23.3442Z" fill="url(#paint4_linear_395_5656)"/>
<path d="M132.283 29.0032L133.256 15.6511C133.344 14.8553 133.256 14.3248 133.079 13.7942C132.902 13.3521 132.46 13.0868 131.664 13.0868H131.399L131.487 12.291H138.384C138.826 12.291 139.357 12.291 139.976 12.3794C140.595 12.4679 141.125 12.5563 141.744 12.7331C142.363 12.91 142.894 13.1753 143.425 13.529C143.955 13.8827 144.309 14.4132 144.574 15.0322C144.839 15.6511 144.928 16.447 144.928 17.3312C144.839 18.2155 144.662 18.9228 144.309 19.5418C143.955 20.1608 143.513 20.6029 142.982 20.9566C142.452 21.3103 141.921 21.5756 141.391 21.7524C140.86 21.9293 140.33 22.0177 139.799 22.1061C139.269 22.1946 138.915 22.1946 138.561 22.1946H136.174L135.732 28.9148H132.283V29.0032ZM136.085 21.3103H137.589C138.031 21.3103 138.473 21.2219 138.826 21.1335C139.269 21.045 139.622 20.7798 139.976 20.5145C140.33 20.2492 140.595 19.8071 140.86 19.2765C141.125 18.746 141.214 18.127 141.302 17.3312C141.391 16.5354 141.302 15.9164 141.125 15.3859C140.949 14.8553 140.772 14.5016 140.418 14.1479C140.153 13.8827 139.799 13.6174 139.445 13.529C139.092 13.4405 138.65 13.3521 138.296 13.3521C138.119 13.3521 137.854 13.3521 137.589 13.3521C137.323 13.3521 136.97 13.4405 136.616 13.529L136.085 21.3103Z" fill="url(#paint5_linear_395_5656)"/>
<path d="M146.873 29.0032L147.846 15.6511C147.934 14.8553 147.846 14.3248 147.669 13.7942C147.492 13.3521 147.05 13.0868 146.254 13.0868H145.9L145.989 12.291H152.886C153.328 12.291 153.859 12.291 154.477 12.3794C155.096 12.4679 155.627 12.5563 156.246 12.7331C156.865 12.91 157.396 13.1753 157.926 13.529C158.457 13.8827 158.81 14.4132 159.076 15.0322C159.341 15.6511 159.429 16.447 159.429 17.3312C159.341 18.2155 159.164 18.9228 158.81 19.5418C158.457 20.1608 158.014 20.6029 157.484 20.9566C156.953 21.3103 156.423 21.5756 155.892 21.7524C155.362 21.9293 154.831 22.0177 154.301 22.1061C153.77 22.1946 153.416 22.1946 153.063 22.1946H150.675L150.233 28.9148H146.873V29.0032ZM150.675 21.3103H152.178C152.621 21.3103 153.063 21.2219 153.416 21.1335C153.859 21.045 154.212 20.7798 154.566 20.5145C154.92 20.2492 155.185 19.8071 155.45 19.2765C155.715 18.746 155.804 18.127 155.892 17.3312C155.981 16.5354 155.892 15.9164 155.715 15.3859C155.539 14.8553 155.362 14.5016 155.008 14.1479C154.743 13.8827 154.389 13.6174 154.035 13.529C153.682 13.4405 153.24 13.3521 152.886 13.3521C152.709 13.3521 152.444 13.3521 152.178 13.3521C151.913 13.3521 151.559 13.4405 151.206 13.529L150.675 21.3103Z" fill="url(#paint6_linear_395_5656)"/>
</g>
<defs>
<linearGradient id="paint0_linear_395_5656" x1="27.4788" y1="-5.17708" x2="27.4788" y2="51.18" gradientUnits="userSpaceOnUse">
<stop stop-color="#F57E20"/>
<stop offset="1" stop-color="#ED1C24"/>
</linearGradient>
<linearGradient id="paint1_linear_395_5656" x1="72.5779" y1="12.9687" x2="73.2631" y2="23.1219" gradientUnits="userSpaceOnUse">
<stop stop-color="#F57E20"/>
<stop offset="1" stop-color="#ED1C24"/>
</linearGradient>
<linearGradient id="paint2_linear_395_5656" x1="87.608" y1="11.9546" x2="88.2931" y2="22.1077" gradientUnits="userSpaceOnUse">
<stop stop-color="#F57E20"/>
<stop offset="1" stop-color="#ED1C24"/>
</linearGradient>
<linearGradient id="paint3_linear_395_5656" x1="105.04" y1="10.7782" x2="105.726" y2="20.9314" gradientUnits="userSpaceOnUse">
<stop stop-color="#F57E20"/>
<stop offset="1" stop-color="#ED1C24"/>
</linearGradient>
<linearGradient id="paint4_linear_395_5656" x1="122.322" y1="9.61222" x2="123.007" y2="19.7654" gradientUnits="userSpaceOnUse">
<stop stop-color="#F57E20"/>
<stop offset="1" stop-color="#ED1C24"/>
</linearGradient>
<linearGradient id="paint5_linear_395_5656" x1="138.141" y1="8.54474" x2="138.826" y2="18.6978" gradientUnits="userSpaceOnUse">
<stop stop-color="#F57E20"/>
<stop offset="1" stop-color="#ED1C24"/>
</linearGradient>
<linearGradient id="paint6_linear_395_5656" x1="152.656" y1="7.56526" x2="153.341" y2="17.7184" gradientUnits="userSpaceOnUse">
<stop stop-color="#F57E20"/>
<stop offset="1" stop-color="#ED1C24"/>
</linearGradient>
<clipPath id="clip0_395_5656">
<rect width="159.341" height="55" fill="white"/>
</clipPath>
</defs>
</svg>
