<svg width="26" height="26" viewBox="0 0 26 26" fill="none" xmlns="http://www.w3.org/2000/svg">
<g clip-path="url(#clip0_885_32054)">
<path d="M19.8822 21.297C18.1234 22.4126 16.0829 23.0033 14.0002 23C8.60815 23 4.12215 19.12 3.18115 14C3.61118 11.6707 4.78278 9.5429 6.52115 7.93401L3.39215 4.80801L4.80715 3.39301L24.6062 23.193L23.1912 24.607L19.8812 21.297H19.8822ZM7.93515 9.35001C6.57616 10.5856 5.62947 12.2088 5.22315 14C5.53545 15.3665 6.16242 16.6411 7.05416 17.7226C7.94589 18.804 9.07778 19.6624 10.3597 20.2293C11.6416 20.7962 13.0382 21.0561 14.4382 20.9881C15.8383 20.9202 17.2031 20.5264 18.4242 19.838L16.3962 17.81C15.5328 18.3538 14.5104 18.5881 13.4964 18.4744C12.4824 18.3608 11.5372 17.9059 10.8157 17.1844C10.0943 16.463 9.63938 15.5177 9.52571 14.5038C9.41205 13.4898 9.64634 12.4673 10.1902 11.604L7.93515 9.35001ZM14.9142 16.328L11.6722 13.086C11.4942 13.5389 11.4523 14.034 11.5517 14.5104C11.651 14.9867 11.8872 15.4238 12.2313 15.7679C12.5754 16.112 13.0124 16.3482 13.4888 16.4475C13.9652 16.5468 14.4602 16.5049 14.9132 16.327L14.9142 16.328ZM22.8072 18.592L21.3762 17.162C22.0446 16.2093 22.5205 15.1352 22.7772 14C22.5054 12.8097 21.9944 11.6872 21.2753 10.7005C20.5562 9.71385 19.6439 8.88373 18.594 8.26061C17.5441 7.63749 16.3784 7.23437 15.1679 7.07577C13.9573 6.91717 12.7272 7.00638 11.5522 7.33801L9.97415 5.76001C11.2212 5.27001 12.5802 5.00001 14.0002 5.00001C19.3922 5.00001 23.8782 8.88001 24.8192 14C24.5127 15.6657 23.824 17.2376 22.8072 18.592ZM13.7232 9.50801C14.3597 9.46867 14.9973 9.56507 15.5937 9.79082C16.1901 10.0166 16.7318 10.3665 17.1827 10.8175C17.6336 11.2684 17.9836 11.81 18.2093 12.4065C18.4351 13.0029 18.5315 13.6405 18.4922 14.277L13.7222 9.50801H13.7232Z" fill="#777E90"/>
</g>
<defs>
<clipPath id="clip0_885_32054">
<rect width="24" height="24" fill="white" transform="translate(2 2)"/>
</clipPath>
</defs>
</svg>
