<svg width="160" height="40" viewBox="0 0 160 40" fill="none" xmlns="http://www.w3.org/2000/svg">
<line opacity="0.8" x1="37" y1="19.5" x2="121" y2="19.5" stroke="#67CA31" stroke-dasharray="3 3"/>
<circle cx="20" cy="20" r="20" fill="#67CA31"/>
<path d="M19.4258 29H22.9297V12.0898H19.4141L15.043 15.125V18.2656L19.3555 15.3359H19.4258V29Z" fill="white"/>
<circle cx="140" cy="20" r="20" fill="#67CA31"/>
<path d="M134.195 29H146.488V26.1875H138.824V26.0469L142.363 22.8125C145.281 20.1289 146.254 18.793 146.254 16.7422V16.7188C146.254 13.8359 143.793 11.7969 140.219 11.7969C136.645 11.7969 133.996 14.0352 133.996 17.2227V17.3164H137.277L137.289 17.2109C137.336 15.6875 138.508 14.5508 140.242 14.5508C141.742 14.5508 142.797 15.5352 142.809 16.918V16.9414C142.809 18.1133 142.352 18.9453 140.172 20.9844L134.195 26.5742V29Z" fill="white"/>
</svg>
