<svg width="176" height="166" viewBox="0 0 176 166" fill="none" xmlns="http://www.w3.org/2000/svg">
<path d="M121.828 94C121.828 97.7703 118.771 100.827 115 100.827C118.771 100.827 121.828 103.883 121.828 107.653C121.828 103.884 124.884 100.828 128.653 100.827C124.884 100.825 121.828 97.7692 121.828 94Z" fill="url(#paint0_linear_1_23)"/>
<g style="mix-blend-mode:lighten" opacity="0.17">
<circle cx="71.5" cy="82.5" r="38" stroke="white"/>
</g>
<g style="mix-blend-mode:lighten" opacity="0.18">
<circle cx="72.5" cy="90.5" r="10" stroke="white"/>
</g>
<g style="mix-blend-mode:lighten" opacity="0.09">
<circle cx="76.5" cy="83.5" r="49" stroke="white"/>
</g>
<g style="mix-blend-mode:lighten" opacity="0.23">
<circle cx="78" cy="80" r="70.5" stroke="white"/>
</g>
<g style="mix-blend-mode:lighten" opacity="0.26">
<circle cx="83" cy="83" r="82.5" stroke="white"/>
</g>
<circle cx="72.5" cy="90.5" r="4.5" fill="#EE4B28"/>
<path d="M165.002 90C165.002 96.0751 160.076 101 154 101C160.076 101 165.002 105.925 165.002 112C165.002 105.927 169.926 101.003 176 101C169.926 100.997 165.002 96.0735 165.002 90Z" fill="#EE4B28"/>
<path d="M82.8282 144C82.8282 147.77 79.7711 150.827 76 150.827C79.7711 150.827 82.8282 153.883 82.8282 157.653C82.8282 153.884 85.8836 150.828 89.6533 150.827C85.8836 150.825 82.8282 147.769 82.8282 144Z" fill="url(#paint1_linear_1_23)"/>
<path d="M79.5017 112C79.5017 116.142 76.1431 119.5 72 119.5C76.1431 119.5 79.5017 122.858 79.5017 127C79.5017 122.859 82.8585 119.502 87 119.5C82.8585 119.498 79.5017 116.141 79.5017 112Z" fill="#265D8B"/>
<defs>
<linearGradient id="paint0_linear_1_23" x1="121.827" y1="94" x2="121.827" y2="107.653" gradientUnits="userSpaceOnUse">
<stop stop-color="#48C224"/>
<stop offset="1" stop-color="#24770B"/>
</linearGradient>
<linearGradient id="paint1_linear_1_23" x1="82.8267" y1="144" x2="82.8266" y2="169.151" gradientUnits="userSpaceOnUse">
<stop offset="0.0989583" stop-color="#FBFF1F"/>
<stop offset="1" stop-color="#FF8515"/>
</linearGradient>
</defs>
</svg>
