<svg width="40" height="40" viewBox="0 0 40 40" fill="none" xmlns="http://www.w3.org/2000/svg">
<path d="M20 3.33331C10.8167 3.33331 3.33337 10.8166 3.33337 20C3.33337 29.1833 10.8167 36.6666 20 36.6666C29.1834 36.6666 36.6667 29.1833 36.6667 20C36.6667 10.8166 29.1834 3.33331 20 3.33331ZM18.75 13.3333C18.75 12.65 19.3167 12.0833 20 12.0833C20.6834 12.0833 21.25 12.65 21.25 13.3333V21.6666C21.25 22.35 20.6834 22.9166 20 22.9166C19.3167 22.9166 18.75 22.35 18.75 21.6666V13.3333ZM21.5334 27.3C21.45 27.5166 21.3334 27.6833 21.1834 27.85C21.0167 28 20.8334 28.1166 20.6334 28.2C20.4334 28.2833 20.2167 28.3333 20 28.3333C19.7834 28.3333 19.5667 28.2833 19.3667 28.2C19.1667 28.1166 18.9834 28 18.8167 27.85C18.6667 27.6833 18.55 27.5166 18.4667 27.3C18.3834 27.1 18.3334 26.8833 18.3334 26.6666C18.3334 26.45 18.3834 26.2333 18.4667 26.0333C18.55 25.8333 18.6667 25.65 18.8167 25.4833C18.9834 25.3333 19.1667 25.2166 19.3667 25.1333C19.7667 24.9666 20.2334 24.9666 20.6334 25.1333C20.8334 25.2166 21.0167 25.3333 21.1834 25.4833C21.3334 25.65 21.45 25.8333 21.5334 26.0333C21.6167 26.2333 21.6667 26.45 21.6667 26.6666C21.6667 26.8833 21.6167 27.1 21.5334 27.3Z" fill="#292D32"/>
<path d="M20 3.33331C10.8167 3.33331 3.33337 10.8166 3.33337 20C3.33337 29.1833 10.8167 36.6666 20 36.6666C29.1834 36.6666 36.6667 29.1833 36.6667 20C36.6667 10.8166 29.1834 3.33331 20 3.33331ZM18.75 13.3333C18.75 12.65 19.3167 12.0833 20 12.0833C20.6834 12.0833 21.25 12.65 21.25 13.3333V21.6666C21.25 22.35 20.6834 22.9166 20 22.9166C19.3167 22.9166 18.75 22.35 18.75 21.6666V13.3333ZM21.5334 27.3C21.45 27.5166 21.3334 27.6833 21.1834 27.85C21.0167 28 20.8334 28.1166 20.6334 28.2C20.4334 28.2833 20.2167 28.3333 20 28.3333C19.7834 28.3333 19.5667 28.2833 19.3667 28.2C19.1667 28.1166 18.9834 28 18.8167 27.85C18.6667 27.6833 18.55 27.5166 18.4667 27.3C18.3834 27.1 18.3334 26.8833 18.3334 26.6666C18.3334 26.45 18.3834 26.2333 18.4667 26.0333C18.55 25.8333 18.6667 25.65 18.8167 25.4833C18.9834 25.3333 19.1667 25.2166 19.3667 25.1333C19.7667 24.9666 20.2334 24.9666 20.6334 25.1333C20.8334 25.2166 21.0167 25.3333 21.1834 25.4833C21.3334 25.65 21.45 25.8333 21.5334 26.0333C21.6167 26.2333 21.6667 26.45 21.6667 26.6666C21.6667 26.8833 21.6167 27.1 21.5334 27.3Z" fill="url(#paint0_linear_764_3936)"/>
<defs>
<linearGradient id="paint0_linear_764_3936" x1="36.6667" y1="-13.3178" x2="-18.1813" y2="17.1406" gradientUnits="userSpaceOnUse">
<stop stop-color="#FF9E89"/>
<stop offset="1" stop-color="#DC0028"/>
</linearGradient>
</defs>
</svg>
