<svg width="65" height="64" viewBox="0 0 65 64" fill="none" xmlns="http://www.w3.org/2000/svg">
<path d="M32.2275 58.6668C46.955 58.6668 58.8941 46.7278 58.8941 32.0002C58.8941 17.2726 46.955 5.3335 32.2275 5.3335C17.4999 5.3335 5.56079 17.2726 5.56079 32.0002C5.56079 46.7278 17.4999 58.6668 32.2275 58.6668Z" fill="url(#paint0_linear_208_16330)"/>
<path d="M29.5027 37.293C29.5261 35.8984 29.6843 34.7969 29.9773 33.9883C30.2703 33.1797 30.8679 32.2832 31.7703 31.2988L34.073 28.9258C35.0574 27.8125 35.5496 26.6172 35.5496 25.3398C35.5496 24.1094 35.2273 23.1484 34.5828 22.457C33.9382 21.7539 33.0007 21.4023 31.7703 21.4023C30.575 21.4023 29.614 21.7188 28.8875 22.3516C28.1609 22.9844 27.7976 23.834 27.7976 24.9004H24.5457C24.5691 23.002 25.2429 21.4727 26.5671 20.3125C27.9031 19.1406 29.6375 18.5547 31.7703 18.5547C33.9851 18.5547 35.7078 19.1523 36.9382 20.3477C38.1804 21.5312 38.8015 23.1602 38.8015 25.2344C38.8015 27.2852 37.8523 29.3066 35.9539 31.2988L34.0378 33.1973C33.1824 34.1465 32.7546 35.5117 32.7546 37.293H29.5027ZM29.3621 42.8652C29.3621 42.3379 29.5203 41.8984 29.8367 41.5469C30.1648 41.1836 30.6453 41.002 31.2781 41.002C31.9109 41.002 32.3914 41.1836 32.7195 41.5469C33.0476 41.8984 33.2117 42.3379 33.2117 42.8652C33.2117 43.3926 33.0476 43.832 32.7195 44.1836C32.3914 44.5234 31.9109 44.6934 31.2781 44.6934C30.6453 44.6934 30.1648 44.5234 29.8367 44.1836C29.5203 43.832 29.3621 43.3926 29.3621 42.8652Z" fill="white"/>
<defs>
<linearGradient id="paint0_linear_208_16330" x1="58.8941" y1="-21.3083" x2="-28.8626" y2="27.4252" gradientUnits="userSpaceOnUse">
<stop stop-color="#FF9E89"/>
<stop offset="1" stop-color="#DC0028"/>
</linearGradient>
</defs>
</svg>
