<svg width="48" height="48" viewBox="0 0 48 48" fill="none" xmlns="http://www.w3.org/2000/svg">
<path d="M21.5 4.89995C22.88 3.71995 25.14 3.71995 26.54 4.89995L29.7 7.61995C30.3 8.13995 31.42 8.55995 32.22 8.55995H35.62C37.74 8.55995 39.48 10.3 39.48 12.42V15.82C39.48 16.6 39.9 17.74 40.42 18.34L43.14 21.5C44.32 22.88 44.32 25.14 43.14 26.54L40.42 29.7C39.9 30.3 39.48 31.42 39.48 32.22V35.62C39.48 37.74 37.74 39.48 35.62 39.48H32.22C31.44 39.48 30.3 39.9 29.7 40.42L26.54 43.14C25.16 44.32 22.9 44.32 21.5 43.14L18.34 40.42C17.74 39.9 16.62 39.48 15.82 39.48H12.36C10.24 39.48 8.50001 37.74 8.50001 35.62V32.2C8.50001 31.42 8.08001 30.3 7.58001 29.7L4.88001 26.52C3.72001 25.14 3.72001 22.9 4.88001 21.52L7.58001 18.34C8.08001 17.74 8.50001 16.62 8.50001 15.84V12.4C8.50001 10.28 10.24 8.53995 12.36 8.53995H15.82C16.6 8.53995 17.74 8.11995 18.34 7.59995L21.5 4.89995Z" fill="#2CAE39"/>
<path d="M21.58 30.34C21.18 30.34 20.8 30.18 20.52 29.9L15.68 25.06C15.1 24.48 15.1 23.52 15.68 22.94C16.26 22.36 17.22 22.36 17.8 22.94L21.58 26.72L30.18 18.12C30.76 17.54 31.72 17.54 32.3 18.12C32.88 18.7 32.88 19.66 32.3 20.24L22.64 29.9C22.36 30.18 21.98 30.34 21.58 30.34Z" fill="#FFD166"/>
</svg>
