<svg width="20" height="20" viewBox="0 0 20 20" fill="none" xmlns="http://www.w3.org/2000/svg">
	<path
		d="M10.0166 1.66675C6.94992 1.66675 4.46658 4.15008 4.46658 7.21675V8.96675C4.46658 9.53341 4.23325 10.3834 3.94158 10.8667L2.88325 12.6334C2.23325 13.7251 2.68325 14.9417 3.88325 15.3417C7.86658 16.6667 12.1749 16.6667 16.1582 15.3417C17.2832 14.9667 17.7666 13.6501 17.1582 12.6334L16.0999 10.8667C15.8082 10.3834 15.5749 9.52508 15.5749 8.96675V7.21675C15.5666 4.16675 13.0666 1.66675 10.0166 1.66675Z"
		fill="#EE4B28" />
	<path
		d="M12.775 15.6833C12.775 17.2083 11.525 18.4583 9.99998 18.4583C9.24164 18.4583 8.54164 18.1417 8.04164 17.6417C7.54164 17.1417 7.22498 16.4417 7.22498 15.6833"
		stroke="#EE4B28" strokeWidth="1.5" strokeMiterlimit="10" />
	<path d="M10 5.3667V8.1417" stroke="#222222" strokeWidth="1.5" strokeMiterlimit="10" strokeLinecap="round" />
	<circle cx="16.2139" cy="3.84229" r="3.78589" fill="#212121" />
	<circle cx="16.2139" cy="3.8423" r="2.37794" fill="#AEE33D" />
</svg>