<svg width="32" height="32" viewBox="0 0 32 32" fill="none" xmlns="http://www.w3.org/2000/svg">
<path d="M16.0003 2.66666C8.65366 2.66666 2.66699 8.65332 2.66699 16C2.66699 23.3467 8.65366 29.3333 16.0003 29.3333C23.347 29.3333 29.3337 23.3467 29.3337 16C29.3337 8.65332 23.347 2.66666 16.0003 2.66666ZM22.3737 12.9333L14.8137 20.4933C14.627 20.68 14.3737 20.7867 14.107 20.7867C13.8403 20.7867 13.587 20.68 13.4003 20.4933L9.62699 16.72C9.24032 16.3333 9.24032 15.6933 9.62699 15.3067C10.0137 14.92 10.6537 14.92 11.0403 15.3067L14.107 18.3733L20.9603 11.52C21.347 11.1333 21.987 11.1333 22.3737 11.52C22.7603 11.9067 22.7603 12.5333 22.3737 12.9333Z" fill="url(#paint0_linear_981_2616)"/>
<defs>
<linearGradient id="paint0_linear_981_2616" x1="16.0003" y1="2.66666" x2="16.0003" y2="29.3333" gradientUnits="userSpaceOnUse">
<stop stop-color="#48C224"/>
<stop offset="1" stop-color="#24770B"/>
</linearGradient>
</defs>
</svg>
