<svg width="221" height="231" viewBox="0 0 221 231" fill="none" xmlns="http://www.w3.org/2000/svg">
<path d="M73.491 125.913V125.931V125.949V125.966V125.984V126.001V126.018V126.036V126.053V126.07V126.087V126.104V126.121V126.138V126.154V126.171V126.188V126.204V126.221V126.237V126.254V126.27V126.286V126.302V126.318V126.335V126.35V126.366V126.382V126.398V126.414V126.429V126.445V126.46V126.476V126.491V126.507V126.522V126.537V126.552V126.567V126.582V126.597V126.612V126.627V126.642V126.656V126.671V126.686V126.7V126.714V126.729V126.743V126.757V126.772V126.786V126.8V126.814V126.828V126.842V126.855V126.869V126.883V126.897V126.91V126.924V126.937V126.95V126.964V126.977V126.99V127.003V127.017V127.03V127.043V127.055V127.068V127.081V127.094V127.107V127.119V127.132V127.144V127.157V127.169V127.181V127.194V127.206V127.218V127.23V127.242V127.254V127.266V127.278V127.29V127.302V127.313V127.325V127.337V127.348V127.36V127.371V127.382V127.394V127.405V127.416V127.427V127.438V127.45V127.461V127.471V127.482V127.493V127.504V127.515V127.525V127.536V127.546V127.557V127.567V127.578V127.588V127.598V127.609V127.619V127.629V127.639V127.649V127.659V127.669V127.679V127.689V127.699V127.708V127.718V127.728V127.737V127.747V127.756V127.765V127.775V127.784V127.793V127.803V127.812V127.821V127.83V127.839V127.848V127.857V127.866V127.875V127.883V127.892V127.901V127.909V127.918V127.926V127.935V127.943V127.952V127.96V127.968V127.977V127.985V127.993V128.001V128.009V128.017V128.025V128.033V128.041V128.049V128.057V128.064V128.072V128.08V128.087V128.095V128.102V128.11V128.117V128.124V128.132V128.139V128.146V128.154V128.161V128.168V128.175V128.182V128.189V128.196V128.203V128.21V128.216V128.223V128.23V128.236V128.243V128.25V128.256V128.263V128.269V128.276V128.282V128.288V128.295V128.301V128.307V128.313V128.319V128.326V128.332V128.338V128.344V128.35V128.355V128.361V128.367V128.373V128.379V128.384V128.39V128.396V128.401V128.407V128.412V128.418V128.423V128.428V128.434V128.439V128.444V128.45V128.455V128.46V128.465V128.47V128.475V128.48V128.485V128.49V128.495V128.5V128.505V128.51V128.514V128.519V128.524V128.528V128.533V128.538V128.542V128.547V128.551V128.556V128.56V128.564V128.569V128.573V128.577V128.581V128.586V128.59V128.594V128.598V128.602V128.606V128.61V128.614V128.618V128.622V128.626V128.63V128.633V128.637V128.641V128.645V128.648V128.652V128.656V128.659V128.663V128.666V128.67V128.673V128.677V128.68V128.683V128.687V128.69V128.693V128.697V128.7V128.703V128.706V128.709V128.713V128.716V128.719V128.722V128.725V128.728V128.731V128.733V128.736V128.739V128.742V128.745V128.748V128.75V128.753V128.756V128.758V128.761V128.764V128.766V128.769V128.771V128.774V128.776V128.779V128.781V128.783V128.786V128.788V128.791V128.793V128.795V128.797V128.8V128.802V128.804V128.806V128.808V128.81V128.812V128.814V128.816V128.819V128.82V128.822V128.824V128.826V128.828V128.83V128.832V128.834V128.836V128.837V128.839V128.841V128.843V128.844V128.846V128.848V128.849V128.851V128.852V128.854V128.856V128.857V128.859V128.86V128.862V128.863V128.864V128.866V128.867V128.869V128.87V128.871V128.873V128.874V128.875V128.876V128.878V128.879V128.88V128.881V128.882V128.884V128.885V128.886V128.887V128.888V128.889V128.89V128.891V128.892V128.893V128.894V128.895V128.896V128.897V128.898V128.899V128.9V128.901V128.901V128.902V128.903V128.904V128.905V128.905V128.906V128.907V128.908V128.908V128.909V128.91V128.91V128.911V128.912V128.912V128.913V128.914V128.914V128.915V128.915V128.916V128.917V128.917V128.918V128.918V128.919V128.919V128.92V128.92V128.921V128.921V128.921V128.922V128.922V128.923V128.923V128.923V128.924V128.924V128.925V128.925V128.925V128.926V128.926V128.926V128.927V128.927V128.927V128.927V128.928V128.928V128.928V128.928V128.929V128.929V128.929V128.929V128.929V128.93V128.93V128.93V128.93V128.93V128.93V128.931V128.931V128.931V128.931V128.931V128.931V128.931V128.932V128.932V128.932V128.932V128.932V128.932V128.933V128.933V128.933V128.933V209.477C73.491 211.408 75.0375 212.963 76.9395 212.963H217.068C218.97 212.963 220.516 211.408 220.516 209.477V125.902C220.516 123.971 218.97 122.416 217.068 122.416H76.9507C75.0487 122.416 73.491 123.982 73.491 125.913Z" stroke="#B2B5C5" stroke-width="0.967484"/>
<path d="M96.3881 155.126H99.9736V158.745H96.3881V155.126Z" fill="#1B6BFE"/>
<path d="M81.1525 157.387H93.98C94.0024 157.387 94.0137 157.364 94.0137 157.353V156.527C94.0137 156.504 93.9912 156.493 93.98 156.493H81.1525C81.1301 156.493 81.1189 156.516 81.1189 156.527V157.353C81.1077 157.364 81.1301 157.387 81.1525 157.387Z" fill="#D3DFFF"/>
<path d="M96.3881 148.68H99.9736V152.299H96.3881V148.68Z" fill="#EF452F"/>
<path d="M81.1525 150.94H93.98C94.0024 150.94 94.0137 150.918 94.0137 150.906V150.081C94.0137 150.058 93.9912 150.047 93.98 150.047H81.1525C81.1301 150.047 81.1189 150.069 81.1189 150.081V150.906C81.1077 150.929 81.1301 150.94 81.1525 150.94Z" fill="#D3DFFF"/>
<path d="M96.3881 161.572H99.9736V165.191H96.3881V161.572Z" fill="#FAB623"/>
<path d="M81.1525 163.822H93.98C94.0024 163.822 94.0137 163.8 94.0137 163.788V162.963C94.0137 162.94 93.9912 162.929 93.98 162.929H81.1525C81.1301 162.929 81.1189 162.951 81.1189 162.963V163.788C81.1077 163.811 81.1301 163.822 81.1525 163.822Z" fill="#D3DFFF"/>
<path d="M81.5548 176.51H99.5246C99.771 176.51 99.9727 176.307 99.9727 176.058C99.9727 175.809 99.771 175.605 99.5246 175.605H81.5548C81.3083 175.605 81.1067 175.809 81.1067 176.058C81.1067 176.307 81.3083 176.51 81.5548 176.51Z" fill="#D3DFFF"/>
<path d="M81.5558 180.232H99.5256C99.772 180.232 99.9736 180.028 99.9736 179.78C99.9736 179.531 99.772 179.327 99.5256 179.327H81.5558C81.3093 179.327 81.1077 179.531 81.1077 179.78C81.1077 180.028 81.3093 180.232 81.5558 180.232Z" fill="#D3DFFF"/>
<path d="M81.5558 183.94H99.5256C99.772 183.94 99.9736 183.736 99.9736 183.488C99.9736 183.239 99.772 183.035 99.5256 183.035H81.5558C81.3093 183.035 81.1077 183.239 81.1077 183.488C81.1077 183.736 81.3093 183.94 81.5558 183.94Z" fill="#D3DFFF"/>
<path d="M81.5558 187.66H99.5256C99.772 187.66 99.9736 187.456 99.9736 187.207C99.9736 186.958 99.772 186.755 99.5256 186.755H81.5558C81.3093 186.755 81.1077 186.958 81.1077 187.207C81.1077 187.456 81.3093 187.66 81.5558 187.66Z" fill="#D3DFFF"/>
<path d="M81.5558 191.381H99.5256C99.772 191.381 99.9736 191.178 99.9736 190.929C99.9736 190.68 99.772 190.477 99.5256 190.477H81.5558C81.3093 190.477 81.1077 190.68 81.1077 190.929C81.1077 191.178 81.3093 191.381 81.5558 191.381Z" fill="#D3DFFF"/>
<path d="M81.5558 195.089H99.5256C99.772 195.089 99.9736 194.886 99.9736 194.637C99.9736 194.388 99.772 194.185 99.5256 194.185H81.5558C81.3093 194.185 81.1077 194.388 81.1077 194.637C81.1077 194.886 81.3093 195.089 81.5558 195.089Z" fill="#D3DFFF"/>
<path d="M81.5558 198.813H99.5256C99.772 198.813 99.9736 198.609 99.9736 198.361C99.9736 198.112 99.772 197.908 99.5256 197.908H81.5558C81.3093 197.908 81.1077 198.112 81.1077 198.361C81.1077 198.609 81.3093 198.813 81.5558 198.813Z" fill="#D3DFFF"/>
<path d="M73.0072 125.913C73.0072 128.933 73.0072 128.933 73.0072 128.933V132.88H221V125.902C221 123.708 219.241 121.933 217.068 121.933H76.9507C74.7773 121.933 73.0072 123.719 73.0072 125.913Z" fill="#B2B5C5"/>
<path d="M88.6011 127.408C88.6011 128.426 89.4191 129.251 90.4275 129.251C91.4359 129.251 92.2539 128.426 92.2539 127.408C92.2539 126.39 91.4359 125.564 90.4275 125.564C89.4191 125.576 88.6011 126.401 88.6011 127.408Z" fill="#EF452F"/>
<path d="M82.6851 127.408C82.6851 128.426 83.503 129.251 84.5115 129.251C85.5199 129.251 86.3379 128.426 86.3379 127.408C86.3379 126.39 85.5199 125.564 84.5115 125.564C83.503 125.576 82.6851 126.401 82.6851 127.408Z" fill="#FAB623"/>
<path d="M77.0279 127.408C77.0279 128.426 77.8458 129.251 78.8543 129.251C79.8627 129.251 80.6807 128.426 80.6807 127.408C80.6807 126.39 79.8627 125.564 78.8543 125.564C77.8458 125.576 77.0279 126.401 77.0279 127.408Z" fill="#1B6BFE"/>
<path d="M201.398 173.08C200.518 172.838 199.601 173.156 198.985 173.845C198.816 174.032 198.648 174.219 198.471 174.398C198.293 174.577 198.108 174.747 197.923 174.917C197.248 175.531 196.942 176.464 197.165 177.353L197.958 180.384L188.164 183.079L187.371 180.048C187.131 179.159 186.428 178.501 185.531 178.31C185.044 178.21 184.557 178.077 184.071 177.926C183.207 177.65 182.257 177.866 181.616 178.513L179.415 180.734L172.283 173.535L174.484 171.314C175.124 170.667 175.338 169.708 175.065 168.836C174.907 168.354 174.784 167.854 174.685 167.363C174.504 166.466 173.852 165.739 172.963 165.506L169.96 164.705L172.63 154.82L175.649 155.62C176.522 155.854 177.447 155.545 178.054 154.864C178.223 154.677 178.392 154.49 178.569 154.311C178.746 154.132 178.931 153.962 179.117 153.792C179.8 153.17 180.106 152.237 179.874 151.356L179.081 148.325L188.875 145.631L189.66 148.653C189.892 149.534 190.603 150.2 191.5 150.391C191.995 150.499 192.474 150.624 192.96 150.775C193.824 151.051 194.774 150.835 195.414 150.188L197.616 147.967L204.748 155.166L202.547 157.387C201.898 158.043 201.684 159.001 201.966 159.865C202.123 160.347 202.247 160.847 202.346 161.338C202.527 162.235 203.179 162.961 204.068 163.195L207.063 163.987L204.393 173.873L201.398 173.08ZM194.414 158.405C191.187 155.147 185.93 155.17 182.675 158.455C179.419 161.741 179.406 167.038 182.633 170.296C185.861 173.554 191.101 173.531 194.356 170.246C197.612 166.96 197.642 161.663 194.414 158.405Z" fill="#286BEE"/>
<path d="M133.891 161.428C134.417 161.429 134.885 161.115 135.124 160.638C135.192 160.51 135.259 160.382 135.331 160.257C135.405 160.127 135.481 160.004 135.557 159.881C135.84 159.436 135.88 158.871 135.616 158.412L134.725 156.844L139.783 153.869L140.674 155.437C140.938 155.896 141.435 156.157 141.956 156.126C142.243 156.109 142.533 156.106 142.825 156.12C143.347 156.148 143.843 155.884 144.108 155.421L145.008 153.848L150.051 156.787L149.151 158.36C148.886 158.822 148.911 159.384 149.193 159.83C149.351 160.078 149.496 160.33 149.622 160.594C149.858 161.071 150.326 161.372 150.854 161.369L152.645 161.364L152.622 167.273L150.824 167.28C150.302 167.281 149.833 167.596 149.597 168.069C149.529 168.196 149.462 168.324 149.39 168.449C149.319 168.575 149.243 168.698 149.167 168.82C148.881 169.27 148.845 169.837 149.105 170.294L149.997 171.862L144.938 174.837L144.051 173.272C143.787 172.813 143.295 172.555 142.77 172.583C142.483 172.6 142.188 172.601 141.896 172.586C141.374 172.559 140.878 172.823 140.613 173.285L139.716 174.853L134.673 171.915L135.57 170.346C135.835 169.884 135.813 169.318 135.529 168.876C135.37 168.628 135.228 168.372 135.095 168.11C134.856 167.637 134.391 167.332 133.863 167.335L132.076 167.342L132.1 161.433L133.891 161.428ZM139.956 168.558C142.235 169.886 145.164 169.08 146.491 166.76C147.818 164.44 147.043 161.481 144.763 160.153C142.484 158.825 139.562 159.628 138.234 161.949C136.907 164.269 137.676 167.229 139.956 168.558Z" fill="#D9D9FC"/>
<path d="M149.331 192.628C149.841 192.51 150.219 192.103 150.34 191.592C150.374 191.455 150.412 191.313 150.454 191.176C150.496 191.038 150.538 190.901 150.589 190.764C150.762 190.27 150.666 189.72 150.307 189.332L149.081 188.017L153.295 184.023L154.517 185.334C154.875 185.721 155.417 185.857 155.918 185.712C156.195 185.631 156.476 185.564 156.756 185.513C157.267 185.42 157.687 185.057 157.834 184.554L158.344 182.842L163.9 184.554L163.391 186.266C163.244 186.769 163.395 187.306 163.775 187.673C163.984 187.875 164.181 188.091 164.364 188.311C164.698 188.716 165.226 188.906 165.737 188.788L167.468 188.386L168.807 194.087L167.071 194.494C166.57 194.613 166.188 195.015 166.066 195.526C166.032 195.663 165.995 195.805 165.952 195.942C165.91 196.08 165.868 196.217 165.822 196.35C165.649 196.844 165.745 197.402 166.103 197.782L167.33 199.096L163.116 203.091L161.894 201.78C161.535 201.392 160.994 201.257 160.492 201.402C160.216 201.482 159.935 201.55 159.65 201.596C159.14 201.689 158.719 202.053 158.572 202.555L158.063 204.268L152.506 202.556L153.015 200.843C153.163 200.341 153.012 199.803 152.632 199.437C152.422 199.234 152.222 199.023 152.038 198.795C151.7 198.394 151.172 198.203 150.67 198.322L148.943 198.728L147.604 193.026L149.331 192.628ZM156.85 198.145C159.364 198.919 162.012 197.488 162.765 194.96C163.514 192.428 162.083 189.751 159.569 188.977C157.055 188.204 154.412 189.63 153.663 192.162C152.914 194.694 154.336 197.372 156.85 198.145Z" fill="#FFEDA3"/>
<path d="M44.9095 90.585C46.1084 89.6016 55.3795 93.7069 55.2623 95.1372C55.145 96.5655 61.7315 110.422 61.7315 110.422L73.1131 101.263L73.1172 101.265C73.2183 100.934 74.2958 97.3715 74.3484 96.7328C74.403 96.0636 76.3275 94.8944 77.2211 95.0658C78.1146 95.2372 76.4569 96.3696 76.3477 96.5778C76.0505 97.143 77.1968 97.3552 77.1968 97.3552C77.1968 97.3552 80.4476 96.3023 80.5163 95.2311C80.5871 94.1599 82.8089 97.1042 82.5481 97.5143C82.2933 97.9142 76.9825 102.234 76.2163 103.17C76.2163 103.17 61.4929 120.157 60.4457 120.602C59.5259 120.991 56.2468 115.137 53.1476 111.25C50.0505 107.368 41.1635 93.66 44.9095 90.585Z" fill="#ED9F8D"/>
<path d="M15.2034 215.491C15.2034 215.491 13.1798 217.483 13.1353 218.215C13.0888 218.946 12.9554 226.779 13.7822 227.512C14.6091 228.244 17.035 228.76 16.2547 229.585C15.6644 230.207 11.1299 230.074 8.12372 229.907C7.24634 229.858 6.14658 222.792 5.79887 221.756C5.29346 220.248 4.06633 216.85 4.52524 215.8C4.74964 215.287 5.81909 214.235 7.3252 213.251C8.91014 212.219 10.4264 209.917 10.4264 209.917L15.2034 215.491Z" fill="#F48C7F"/>
<path d="M36.1621 220.132C36.1621 220.132 34.3507 225.294 34.3486 225.306C34.2132 226.124 33.6836 228.144 33.6836 228.887C33.6836 231.681 46.163 226.516 43.3671 225.278C43.1144 225.165 42.3199 224.272 42.237 223.321C42.1096 221.856 43.2883 220.02 43.2883 220.02L36.1621 220.132Z" fill="#ED9F8D"/>
<path d="M55.7399 124.008C55.7399 124.008 56.6496 133.261 56.6496 133.4C56.6496 148.37 59.5891 177.61 59.0311 180.425C57.6665 187.289 42.9856 222.309 42.9856 222.309L35.0507 221.352L43.5678 179.034L41.5866 162.547L36.203 129.188L55.7399 124.008Z" fill="#50BFA5"/>
<path d="M29.109 132.194L27.6029 140.966L23.5293 177.063L8.0154 212.342C8.0154 212.342 10.1968 217.476 13.4172 218.196L38.1092 181.974L53.4473 135.626L52.9095 125.33L29.109 132.194Z" fill="#96D9C9"/>
<path d="M58.9033 101.974L47.9016 103.109C47.9016 103.109 47.3962 94.0042 47.3962 89.6622C47.3962 84.3938 47.841 77.6074 48.4717 77.7543C50.2407 78.1644 52.6241 79.1499 54.0413 81.1169C58.9498 87.9217 58.9033 101.974 58.9033 101.974Z" fill="#B75742"/>
<path d="M53.4974 88.7317C53.7278 90.3375 57.957 134.009 57.957 134.009C37.9248 143.774 26.8686 135.749 26.8686 135.749C26.8686 135.749 27.5236 105.084 26.7392 100.909C26.2197 98.1482 25.5707 79.7967 27.3437 79.2825C29.618 78.6234 32.2279 77.9215 35.0703 77.6257C37.4983 77.3706 46.9271 77.2237 48.6131 77.795C48.6172 77.795 52.529 81.9758 53.4974 88.7317Z" fill="#EE4B28"/>
<path d="M7.42225 213.199C7.42225 213.199 12.0841 226.45 13.9096 227.09C14.3948 227.26 16.7197 227.69 17.1584 228.729C17.2898 229.041 17.1584 230.086 17.1584 230.086H7.43844C7.43844 230.086 6.2093 224.248 5.72411 221.681C5.72411 221.681 3.15058 215.413 3.43765 214.844C3.72472 214.275 7.42225 213.199 7.42225 213.199Z" fill="#EE4B28"/>
<path d="M32.9744 229.811L34.4037 225.255C34.4037 225.255 37.4058 226.536 38.9058 226.322C40.4058 226.108 43.3372 225.255 43.3372 225.255C49.3273 227.244 54.2337 228.211 53.3422 229.811H32.9744Z" fill="#EE4B28"/>
<path d="M60.4477 120.605C60.4922 120.586 60.6559 120.456 60.7509 120.378C60.3951 116.099 60.4598 111.953 61.79 110.551C61.7577 110.484 61.4666 109.86 61.1634 109.213C59.6209 110.417 58.889 113.614 59.1761 118.805C59.1963 119.162 59.2974 119.433 59.3803 119.88C59.825 120.376 60.2294 120.696 60.4477 120.605Z" fill="#ED9F8D"/>
<path d="M37.7509 69.1818L36.4591 77.772C36.4591 77.772 41.1756 88.0006 43.9897 87.113C46.3509 86.3683 44.8994 77.319 44.8994 77.319C44.8994 77.319 43.6116 72.4587 43.9977 70.0265C44.3838 67.5944 37.7509 69.1818 37.7509 69.1818Z" fill="#ED9F8D"/>
<path d="M43.9973 70.0265C44.3834 67.5944 37.7505 69.1818 37.7505 69.1818L37.6434 69.8939C37.8374 70.3714 38.074 70.7795 38.3631 71.0916C39.8449 72.7015 42.1617 73.6667 44.1631 73.7401C43.9629 72.4302 43.8396 71.0243 43.9973 70.0265Z" fill="#EE4B28"/>
<path d="M36.6625 57.0289C36.4745 56.9596 35.1605 66.8128 37.6551 69.5245C40.1498 72.2362 45.0138 73.1217 46.7585 70.9875C48.6871 68.6267 48.5901 58.0369 44.7106 55.2476C40.8311 52.4584 36.6625 57.0289 36.6625 57.0289Z" fill="#ED9F8D"/>
<path d="M43.2332 49.9778C40.2332 50.5961 38.2904 52.4447 37.5768 53.2343C36.2142 53.3976 34.3644 54.1566 32.4519 57.3499C30.1008 61.2777 31.8374 65.6299 34.5726 67.7642C37.3079 69.8985 37.2715 72.3653 37.2715 72.3653L37.7041 71.0901C38.0235 70.1229 38.1529 69.0986 38.0457 68.0845C37.981 67.4765 37.8517 66.8195 37.603 66.2788C36.944 64.8525 39.0161 63.9058 39.5984 62.7182C40.0452 61.8041 40.0674 59.7147 40.7729 58.2048L41.6139 57.052C41.6139 57.052 43.5547 55.5278 45.455 55.9583C47.3553 56.3888 47.0824 49.1862 43.2332 49.9778Z" fill="#0E2E35"/>
<path d="M39.4731 64.4732C39.4933 65.675 38.9515 66.6584 38.2642 66.6707C37.5768 66.6829 37.0027 65.7178 36.9824 64.516C36.9622 63.3142 37.504 62.3307 38.1914 62.3185C38.8787 62.3062 39.4529 63.2714 39.4731 64.4732Z" fill="#ED9F8D"/>
<path d="M43.5269 67.2516L47.2891 67.0557C47.2891 67.0557 47.2769 68.5023 45.6233 68.637C43.6097 68.8002 43.5269 67.2516 43.5269 67.2516Z" fill="white"/>
<path d="M74.3117 89.7114C73.4282 88.7973 72.6034 87.8566 71.8372 86.8936L55.4156 103.078C54.4068 104.074 54.7545 106.084 56.1919 107.569C57.6293 109.055 59.6145 109.454 60.6233 108.459L77.0449 92.2741C76.1089 91.4804 75.1951 90.6255 74.3117 89.7114Z" fill="#0E2E35"/>
<path d="M74.6413 89.3969C58.6563 72.8822 59.0444 46.3343 75.5084 30.1005C91.9723 13.8667 118.277 14.0945 134.263 30.6092C150.248 47.1239 149.859 73.6718 133.395 89.9056C116.932 106.139 90.6264 105.912 74.6413 89.3969Z" fill="#02182A"/>
<path d="M137.16 93.8206C118.544 112.17 88.8045 111.907 70.7373 93.235C52.668 74.5611 53.1128 44.5485 71.7299 26.199C90.345 7.84947 120.085 8.11269 138.152 26.7846C156.219 45.4565 155.775 75.4711 137.16 93.8206ZM133.383 89.9173C149.849 73.6857 150.243 47.1378 134.261 30.6206C118.278 14.1034 91.9724 13.8708 75.5063 30.1023C59.0402 46.3339 58.646 72.8818 74.6289 89.399C90.6118 105.916 116.915 106.147 133.383 89.9173Z" fill="#184655"/>
<path opacity="0.5" d="M135.175 91.7679C117.688 109.003 89.7548 108.758 72.7834 91.217C55.8119 73.6775 56.2283 45.485 73.7153 28.2495C91.2023 11.0141 119.135 11.2589 136.106 28.8005C153.078 46.3399 152.662 74.5324 135.175 91.7679ZM133.383 89.9172C149.849 73.6857 150.244 47.1377 134.261 30.6205C118.278 14.1033 91.9725 13.8707 75.5065 30.1022C59.0404 46.3338 58.6462 72.8817 74.6291 89.3989C90.612 105.916 116.915 106.147 133.383 89.9172Z" fill="#50BFA5"/>
<path d="M4.4147 160.741L1.86339 158.07C-0.687889 155.401 -0.61105 151.149 2.03525 148.576L49.4442 102.185C52.0905 99.6096 56.3015 99.6892 58.8508 102.358L61.4021 105.029C63.9533 107.698 63.8745 111.95 61.2303 114.523L13.8213 160.914C11.177 163.489 6.96598 163.412 4.4147 160.741Z" fill="#184655"/>
<path d="M71.6414 68.5137H73.8758V57.7542H73.9362L81.4144 68.5137H83.4878V53.9899H81.2534V64.7292H81.193L73.7248 53.9899H71.6414V68.5137ZM90.4628 68.725C93.4924 68.725 95.4853 66.6315 95.4853 63.2195V63.1994C95.4853 59.8075 93.4723 57.724 90.4528 57.724C87.4434 57.724 85.4404 59.8176 85.4404 63.1994V63.2195C85.4404 66.6215 87.4232 68.725 90.4628 68.725ZM90.4729 66.9033C88.7719 66.9033 87.6648 65.5646 87.6648 63.2195V63.1994C87.6648 60.8844 88.782 59.5458 90.4528 59.5458C92.1538 59.5458 93.2609 60.8844 93.2609 63.1994V63.2195C93.2609 65.5546 92.1739 66.9033 90.4729 66.9033ZM105.309 68.725C106.828 68.725 107.996 67.9601 108.63 66.7221H108.67V68.5137H110.854V53.9899H108.67V59.727H108.63C107.996 58.4789 106.788 57.724 105.289 57.724C102.631 57.724 100.88 59.8377 100.88 63.2094V63.2195C100.88 66.5913 102.611 68.725 105.309 68.725ZM105.882 66.853C104.161 66.853 103.104 65.4741 103.104 63.2195V63.2094C103.104 60.975 104.171 59.5861 105.882 59.5861C107.513 59.5861 108.68 61.0153 108.68 63.2094V63.2195C108.68 65.4237 107.523 66.853 105.882 66.853ZM116.199 68.7049C117.598 68.7049 118.826 67.9802 119.44 66.8429H119.48V68.5137H121.664V61.2166C121.664 59.0929 120.024 57.724 117.437 57.724C114.83 57.724 113.25 59.1231 113.099 60.9448L113.089 61.0555H115.142L115.162 60.965C115.343 60.1195 116.118 59.5257 117.377 59.5257C118.725 59.5257 119.48 60.2302 119.48 61.3977V62.1929L116.602 62.364C114.095 62.515 112.666 63.6422 112.666 65.4841V65.5043C112.666 67.4065 114.085 68.7049 116.199 68.7049ZM114.86 65.4539V65.4338C114.86 64.538 115.585 63.9643 116.893 63.8838L119.48 63.7228V64.5481C119.48 65.927 118.323 66.9637 116.793 66.9637C115.625 66.9637 114.86 66.3799 114.86 65.4539ZM127.492 68.725C127.935 68.725 128.347 68.6747 128.599 68.6345V66.9536C128.438 66.9737 128.247 66.9939 128.015 66.9939C127.099 66.9939 126.616 66.6718 126.616 65.5948V59.6565H128.599V57.9253H126.616V55.1675H124.392V57.9253H122.872V59.6565H124.392V65.7257C124.392 67.8393 125.398 68.725 127.492 68.725ZM133.35 68.7049C134.749 68.7049 135.977 67.9802 136.591 66.8429H136.631V68.5137H138.815V61.2166C138.815 59.0929 137.174 57.724 134.588 57.724C131.981 57.724 130.401 59.1231 130.25 60.9448L130.24 61.0555H132.293L132.313 60.965C132.494 60.1195 133.269 59.5257 134.527 59.5257C135.876 59.5257 136.631 60.2302 136.631 61.3977V62.1929L133.752 62.364C131.246 62.515 129.817 63.6422 129.817 65.4841V65.5043C129.817 67.4065 131.236 68.7049 133.35 68.7049ZM132.011 65.4539V65.4338C132.011 64.538 132.736 63.9643 134.044 63.8838L136.631 63.7228V64.5481C136.631 65.927 135.473 66.9637 133.943 66.9637C132.776 66.9637 132.011 66.3799 132.011 65.4539Z" fill="white"/>
<path d="M7.02887 134.471C7.01674 134.377 7.01471 134.283 7.02482 134.189C7.31997 131.165 9.80861 105.77 10.2271 104.691C10.6051 103.715 21.7624 87.6084 21.7624 87.6084L27.2471 95.1498L16.5163 109.596C16.2757 110.514 12.4044 127.658 12.4044 127.658C12.4044 127.658 11.6098 130.782 11.2561 132.655C11.4178 133.106 11.5775 133.532 11.719 133.881C12.0748 134.628 12.4933 135.24 12.8754 135.756C13.3545 136.405 14.147 137.823 14.246 138.203C14.3592 138.643 14.5655 139.56 14.6807 140.113C14.7959 140.665 14.9556 141.31 14.9819 141.61C14.9981 141.794 15.1841 142.157 15.3276 142.414C15.5419 142.798 15.176 143.251 14.7636 143.112C14.3734 142.981 14.0701 142.471 13.8842 142.155C13.3565 141.259 13.0735 139.623 12.9421 139.711C12.8107 139.796 12.3477 142.573 12.275 142.885C12.2022 143.2 11.6462 146.422 11.3329 147.011C11.0195 147.601 10.6051 147.501 10.4959 147.134C10.4009 146.815 10.8417 142.308 10.8417 142.308C10.8417 142.308 10.8962 141.733 10.6475 141.912C10.3989 142.092 9.99055 146.185 9.81668 146.785C9.64283 147.385 9.24659 147.701 8.91101 147.219C8.50264 146.634 9.20413 142.292 9.20413 142.292C9.20413 142.292 9.28297 141.747 9.05251 141.796C8.82204 141.845 8.53296 145.336 8.35304 145.636C8.17311 145.938 7.72028 146.046 7.50397 145.542C7.24924 144.95 7.90829 141.08 7.90829 141.08C7.90829 141.08 7.87592 140.772 7.73239 140.874C7.58885 140.976 7.13198 143.932 6.83278 144.206C6.58209 144.436 6.37386 144.212 6.37386 144.212C5.82601 143.834 6.66496 141.023 6.65687 139.625C6.64878 138.227 7.2917 136.656 7.09964 134.991C7.08549 134.889 7.0511 134.632 7.02887 134.471Z" fill="#F8A492"/>
<path d="M13.0447 97.8093L22.5767 104.267C22.5767 104.267 27.9481 96.1994 30.833 93.3265C34.4456 89.7272 29.5169 78.7048 27.19 79.3292C21.9823 80.7248 13.0447 97.8093 13.0447 97.8093Z" fill="#EE4B28"/>
</svg>
