<svg width="20" height="20" viewBox="-1 -1 18 23" fill="none" xmlns="http://www.w3.org/2000/svg">
	<path
		d="M0 19V1H7V3H2V17H16V11.65L18 13.65V19H0ZM18.55 11.4L15.45 8.3C15.1 8.53333 14.725 8.70833 14.325 8.825C13.925 8.94167 13.5 9 13.05 9C11.8167 9 10.7667 8.56267 9.9 7.688C9.03333 6.81267 8.6 5.75 8.6 4.5C8.6 3.25 9.03767 2.18733 9.913 1.312C10.7877 0.437333 11.85 0 13.1 0C14.35 0 15.4127 0.437333 16.288 1.312C17.1627 2.18733 17.6 3.25 17.6 4.5C17.6 4.95 17.5333 5.38333 17.4 5.8C17.2667 6.21667 17.1 6.6 16.9 6.95L19.95 10L18.55 11.4ZM13.1 7C13.8 7 14.3917 6.75833 14.875 6.275C15.3583 5.79167 15.6 5.2 15.6 4.5C15.6 3.8 15.3583 3.20833 14.875 2.725C14.3917 2.24167 13.8 2 13.1 2C12.4 2 11.8083 2.24167 11.325 2.725C10.8417 3.20833 10.6 3.8 10.6 4.5C10.6 5.2 10.8417 5.79167 11.325 6.275C11.8083 6.75833 12.4 7 13.1 7ZM3 15L6 11L8.25 14L11.25 10L15 15H3Z"
		fill="#EE4B28" />
</svg>