<svg width="251" height="182" viewBox="0 0 251 182" fill="none" xmlns="http://www.w3.org/2000/svg">
<path d="M104.949 165.258L78.2767 177.552V180.275H173.264V177.552L146.352 165.258H104.949Z" fill="#466EB6"/>
<path d="M146.369 112.565H104.949V165.281H146.369V112.565Z" fill="#466EB6"/>
<path d="M250.994 129.102V10.2269C250.994 4.57907 246.415 0 240.767 0H10.2811C4.63327 0 0.0541992 4.57907 0.0541992 10.2269V129.102H250.994Z" fill="#466EB6"/>
<path opacity="0.3" d="M173.264 177.552H78.2767V180.275H173.264V177.552Z" fill="#184655"/>
<path opacity="0.3" d="M146.352 159.072H104.949V165.258H146.352V159.072Z" fill="#184655"/>
<path d="M0.0541992 129.102V148.151C0.0541992 152.114 2.67265 155.326 5.90468 155.326H245.145C248.376 155.326 250.996 152.114 250.996 148.151V129.102H0.0541992Z" fill="#5184CE"/>
<path d="M245.12 123.939V10.5451C245.12 7.57278 242.624 5.16266 239.543 5.16266H11.5041C8.42471 5.16266 5.92755 7.57278 5.92755 10.5451V123.94H245.12V123.939Z" fill="#CCE6FF"/>
<path d="M160.198 14.3165H16.4315V114.634H160.198V14.3165Z" fill="#E9FFFF"/>
<path d="M160.198 14.3165H16.4315V26.0617H160.198V14.3165Z" fill="#5184CE"/>
<path opacity="0.6" d="M221.174 39.4136H211.361V115.371H221.174V39.4136Z" fill="#9BC1F9"/>
<path opacity="0.6" d="M207.47 62.5831H197.656V115.372H207.47V62.5831Z" fill="#9BC1F9"/>
<path opacity="0.6" d="M235.075 55.8707H225.262V115.372H235.075V55.8707Z" fill="#9BC1F9"/>
<path opacity="0.6" d="M193.765 53.5319H183.952V115.373H193.765V53.5319Z" fill="#9BC1F9"/>
<path opacity="0.6" d="M180.059 71.8668H170.246V115.372H180.059V71.8668Z" fill="#9BC1F9"/>
<path opacity="0.3" d="M221.174 56.9211H211.36V115.373H221.174V56.9211Z" fill="#9BC1F9"/>
<path opacity="0.3" d="M207.469 74.7495H197.656V115.372H207.469V74.7495Z" fill="#9BC1F9"/>
<path opacity="0.3" d="M235.075 69.5839H225.262V115.372H235.075V69.5839Z" fill="#9BC1F9"/>
<path opacity="0.3" d="M193.765 67.7845H183.952V115.373H193.765V67.7845Z" fill="#9BC1F9"/>
<path opacity="0.3" d="M180.059 81.8943H170.246V115.373H180.059V81.8943Z" fill="#9BC1F9"/>
<path opacity="0.6" d="M154.089 30.8992H21.3927V47.9312H154.089V30.8992Z" fill="#9BC1F9"/>
<path opacity="0.6" d="M154.089 52.7671H68.6805V57.1321H154.089V52.7671Z" fill="#9BC1F9"/>
<path d="M63.4092 52.7671H21.3927V103.144H63.4092V52.7671Z" fill="#5184CE"/>
<path opacity="0.6" d="M154.089 61.9694H68.6805V66.3344H154.089V61.9694Z" fill="#9BC1F9"/>
<path opacity="0.6" d="M154.089 89.5767H68.6805V93.9417H154.089V89.5767Z" fill="#9BC1F9"/>
<path opacity="0.6" d="M154.089 98.7791H68.6805V103.144H154.089V98.7791Z" fill="#9BC1F9"/>
<path opacity="0.6" d="M192.415 14.3066H171.714V35.0074H192.415V14.3066Z" fill="#9BC1F9"/>
<path opacity="0.6" d="M236.459 14.3066H196.077V17.1191H236.459V14.3066Z" fill="#9BC1F9"/>
<path opacity="0.6" d="M223.328 20.2684H196.077V23.0809H223.328V20.2684Z" fill="#9BC1F9"/>
<path opacity="0.6" d="M232.351 26.2316H196.077V29.0441H232.351V26.2316Z" fill="#9BC1F9"/>
<path d="M76.6487 82.7692C77.4949 82.0814 84.0389 84.9525 83.9561 85.9527C83.8734 86.9516 88.5224 96.642 88.5224 96.642L96.556 90.2364L96.5589 90.2379C96.6302 90.0067 97.3908 87.5153 97.4279 87.0686C97.4665 86.6006 98.8249 85.7829 99.4556 85.9028C100.086 86.0227 98.9162 86.8146 98.8392 86.9602C98.6294 87.3554 99.4385 87.5038 99.4385 87.5038C99.4385 87.5038 101.733 86.7675 101.782 86.0184C101.831 85.2692 103.4 87.3283 103.216 87.6151C103.036 87.8948 99.2872 90.9157 98.7464 91.5706C98.7464 91.5706 88.354 103.45 87.6148 103.761C86.9655 104.034 84.651 99.9397 82.4635 97.2214C80.2774 94.5059 74.0046 84.9196 76.6487 82.7692Z" fill="#F7A491"/>
<path d="M55.6809 170.121C55.6809 170.121 54.2526 171.514 54.2212 172.026C54.1884 172.537 54.0942 178.015 54.6778 178.527C55.2614 179.04 56.9738 179.401 56.423 179.977C56.0063 180.412 52.8056 180.32 50.6838 180.203C50.0645 180.168 49.2882 175.227 49.0428 174.502C48.686 173.447 47.8199 171.072 48.1438 170.337C48.3022 169.978 49.0571 169.242 50.1201 168.554C51.2389 167.832 52.3091 166.223 52.3091 166.223L55.6809 170.121Z" fill="#F48C7F"/>
<path d="M70.4742 173.366C70.4742 173.366 69.1956 176.976 69.1942 176.985C69.0986 177.557 68.7248 178.97 68.7248 179.489C68.7248 181.443 77.5333 177.831 75.5598 176.965C75.3815 176.886 74.8207 176.261 74.7622 175.596C74.6723 174.572 75.5042 173.288 75.5042 173.288L70.4742 173.366Z" fill="#F7A491"/>
<path d="M84.2931 106.143C84.2931 106.143 84.9352 112.614 84.9352 112.711C84.9352 123.18 87.01 143.629 86.6162 145.598C85.653 150.398 75.2905 174.889 75.2905 174.889L69.6897 174.22L75.7014 144.625L74.303 133.095L70.5031 109.766L84.2931 106.143Z" fill="#50BFA5"/>
<path d="M65.4962 111.868L64.4331 118.002L61.5578 143.246L50.6074 167.918C50.6074 167.918 52.1471 171.508 54.4202 172.012L71.849 146.681L82.6752 114.268L82.2956 107.067L65.4962 111.868Z" fill="#96D9C9"/>
<path d="M86.5262 90.7344L78.7607 91.5277C78.7607 91.5277 78.404 85.1607 78.404 82.1242C78.404 78.4398 78.7179 73.6938 79.1631 73.7965C80.4117 74.0833 82.0941 74.7725 83.0944 76.1481C86.559 80.907 86.5262 90.7344 86.5262 90.7344Z" fill="#B75742"/>
<path d="M82.7105 81.4736C82.8731 82.5966 85.8583 113.138 85.8583 113.138C71.7186 119.967 63.9147 114.355 63.9147 114.355C63.9147 114.355 64.377 92.9092 63.8234 89.9896C63.4566 88.059 62.9986 75.225 64.25 74.8654C65.8553 74.4045 67.6975 73.9136 69.7038 73.7067C71.4176 73.5284 78.0729 73.4256 79.2629 73.8252C79.2658 73.8252 82.0269 76.749 82.7105 81.4736Z" fill="#F47458"/>
<path d="M50.1887 168.519C50.1887 168.519 53.4793 177.785 54.7678 178.233C55.1103 178.352 56.7513 178.653 57.0609 179.379C57.1537 179.598 57.0609 180.328 57.0609 180.328H50.2002C50.2002 180.328 49.3326 176.246 48.9901 174.451C48.9901 174.451 47.1736 170.067 47.3762 169.669C47.5789 169.271 50.1887 168.519 50.1887 168.519Z" fill="#F47458"/>
<path d="M68.2241 180.136L69.2329 176.949C69.2329 176.949 71.3519 177.845 72.4107 177.696C73.4695 177.546 75.5386 176.949 75.5386 176.949C79.7667 178.34 83.2299 179.017 82.6006 180.136H68.2241Z" fill="#F47458"/>
<path d="M87.6165 103.763C87.6479 103.75 87.7635 103.658 87.8306 103.604C87.5794 100.612 87.6251 97.7123 88.564 96.732C88.5412 96.6849 88.3357 96.2482 88.1217 95.7959C87.0329 96.6378 86.5164 98.8738 86.719 102.504C86.7333 102.754 86.8046 102.943 86.8631 103.256C87.177 103.603 87.4624 103.827 87.6165 103.763Z" fill="#F7A491"/>
<path d="M71.596 67.8019L70.6842 73.8094C70.6842 73.8094 74.0132 80.9627 75.9995 80.3419C77.6662 79.8211 76.6417 73.4926 76.6417 73.4926C76.6417 73.4926 75.7327 70.0936 76.0052 68.3927C76.2778 66.6918 71.596 67.8019 71.596 67.8019Z" fill="#F7A491"/>
<path d="M76.0054 68.3927C76.278 66.6918 71.5962 67.8019 71.5962 67.8019L71.5205 68.2999C71.6575 68.6338 71.8245 68.9192 72.0285 69.1375C73.0745 70.2634 74.7098 70.9383 76.1224 70.9897C75.9812 70.0736 75.8941 69.0905 76.0054 68.3927Z" fill="#F47458"/>
<path d="M70.8282 59.3032C70.6955 59.2547 69.7679 66.1455 71.5288 68.0419C73.2896 69.9383 76.7229 70.5576 77.9543 69.065C79.3157 67.414 79.2471 60.0082 76.5088 58.0575C73.7705 56.1069 70.8282 59.3032 70.8282 59.3032Z" fill="#F7A491"/>
<path d="M75.4661 54.3717C73.3485 54.804 71.9772 56.0968 71.4735 56.6491C70.5117 56.7632 69.206 57.294 67.8562 59.5272C66.1966 62.2741 67.4224 65.3178 69.353 66.8104C71.2837 68.3029 71.258 70.0281 71.258 70.0281L71.5634 69.1363C71.7888 68.4599 71.8801 67.7436 71.8045 67.0344C71.7588 66.6092 71.6675 66.1497 71.492 65.7715C71.0268 64.7741 72.4895 64.112 72.9004 63.2815C73.2158 62.6422 73.2315 61.181 73.7295 60.1251L74.3231 59.3189C74.3231 59.3189 75.693 58.2529 77.0343 58.554C78.3756 58.8551 78.183 53.818 75.4661 54.3717Z" fill="#0E2E35"/>
<path d="M72.812 64.5087C72.8263 65.3491 72.4438 66.0369 71.9587 66.0455C71.4735 66.054 71.0683 65.3791 71.054 64.5386C71.0397 63.6981 71.4221 63.0104 71.9073 63.0018C72.3925 62.9932 72.7977 63.6682 72.812 64.5087Z" fill="#F7A491"/>
<path d="M75.673 66.4507L78.3285 66.3137C78.3285 66.3137 78.3199 67.3254 77.1527 67.4195C75.7314 67.5337 75.673 66.4507 75.673 66.4507Z" fill="white"/>
<path d="M97.4023 82.1585C96.7787 81.5193 96.1965 80.8614 95.6557 80.1879L84.0646 91.5065C83.3526 92.2028 83.598 93.6084 84.6126 94.6472C85.6271 95.686 87.0284 95.9657 87.7404 95.2693L99.3315 83.9508C98.6709 83.3957 98.0259 82.7978 97.4023 82.1585Z" fill="#0E2E35"/>
<path opacity="0.6" d="M97.6348 81.9394C86.3518 70.39 86.6258 51.8241 98.2468 40.4711C109.868 29.1182 128.435 29.2775 139.718 40.8269C151.001 52.3763 150.727 70.9422 139.106 82.2952C127.485 93.6481 108.918 93.4888 97.6348 81.9394Z" fill="#C5DDF9"/>
<path d="M97.5923 81.6305C102.401 86.7433 108.979 90.0838 116.205 90.7402L147.915 58.5083C147.909 58.4469 147.904 58.387 147.898 58.3256C147.109 50.9668 143.686 44.5327 138.676 39.8709L97.5923 81.6305Z" fill="white"/>
<path d="M118.922 32.0299L89.5969 61.8374C89.6112 62.7392 89.664 63.6482 89.7625 64.5629C90.2091 68.7281 91.5019 72.5951 93.4454 76.0155L133.049 35.7614C128.832 33.3884 124.001 32.0456 118.922 32.0299Z" fill="white"/>
<path d="M141.763 85.0323C128.624 97.8648 107.632 97.6808 94.8793 84.6228C82.1253 71.5633 82.4392 50.5744 95.58 37.7418C108.719 24.9093 129.711 25.0934 142.464 38.1514C155.216 51.2094 154.902 72.1998 141.763 85.0323ZM139.098 82.3025C150.72 70.9512 150.998 52.3852 139.717 40.834C128.435 29.2829 109.868 29.1202 98.2455 40.4716C86.623 51.823 86.3447 70.389 97.6262 81.9401C108.908 93.4912 127.474 93.6525 139.098 82.3025Z" fill="#184655"/>
<path opacity="0.5" d="M140.362 83.5969C128.019 95.6503 108.303 95.4791 96.3237 83.2116C84.3445 70.9456 84.6384 51.2294 96.9815 39.176C109.325 27.1226 129.041 27.2938 141.02 39.5613C152.999 51.8273 152.705 71.5435 140.362 83.5969ZM139.098 82.3027C150.72 70.9513 150.999 52.3853 139.717 40.8341C128.436 29.283 109.868 29.1203 98.2458 40.4717C86.6233 51.8231 86.345 70.3891 97.6265 81.9402C108.908 93.4913 127.474 93.6526 139.098 82.3027Z" fill="#50BFA5"/>
<path d="M48.066 131.832L46.2651 129.964C44.4643 128.098 44.5186 125.124 46.3865 123.324L79.8498 90.8814C81.7177 89.0806 84.69 89.1363 86.4894 91.0027L88.2902 92.8706C90.091 94.737 90.0354 97.7108 88.1689 99.5102L54.7056 131.953C52.8391 133.754 49.8668 133.7 48.066 131.832Z" fill="#184655"/>
<path d="M95.4818 67.1569H96.9993V59.8492H97.0403L102.119 67.1569H103.528V57.2926H102.01V64.5865H101.969L96.8968 57.2926H95.4818V67.1569ZM108.265 67.3004C110.323 67.3004 111.676 65.8785 111.676 63.5612V63.5475C111.676 61.2438 110.309 59.8287 108.258 59.8287C106.214 59.8287 104.854 61.2506 104.854 63.5475V63.5612C104.854 65.8717 106.201 67.3004 108.265 67.3004ZM108.272 66.0631C107.117 66.0631 106.365 65.1539 106.365 63.5612V63.5475C106.365 61.9752 107.123 61.066 108.258 61.066C109.413 61.066 110.165 61.9752 110.165 63.5475V63.5612C110.165 65.1471 109.427 66.0631 108.272 66.0631ZM118.348 67.3004C119.38 67.3004 120.173 66.7809 120.604 65.9401H120.631V67.1569H122.115V57.2926H120.631V61.1891H120.604C120.173 60.3414 119.353 59.8287 118.334 59.8287C116.53 59.8287 115.34 61.2643 115.34 63.5543V63.5612C115.34 65.8512 116.516 67.3004 118.348 67.3004ZM118.738 66.0289C117.569 66.0289 116.851 65.0924 116.851 63.5612V63.5543C116.851 62.0367 117.576 61.0934 118.738 61.0934C119.845 61.0934 120.638 62.0641 120.638 63.5543V63.5612C120.638 65.0582 119.852 66.0289 118.738 66.0289ZM125.744 67.2867C126.695 67.2867 127.529 66.7946 127.946 66.0221H127.973V67.1569H129.456V62.2008C129.456 60.7584 128.342 59.8287 126.585 59.8287C124.815 59.8287 123.742 60.7789 123.639 62.0162L123.632 62.0914H125.027L125.04 62.0299C125.163 61.4557 125.69 61.0524 126.544 61.0524C127.46 61.0524 127.973 61.5309 127.973 62.3239V62.8639L126.018 62.9801C124.316 63.0826 123.345 63.8483 123.345 65.0992V65.1129C123.345 66.4049 124.309 67.2867 125.744 67.2867ZM124.835 65.0787V65.0651C124.835 64.4567 125.327 64.067 126.216 64.0123L127.973 63.903V64.4635C127.973 65.4 127.187 66.1041 126.148 66.1041C125.355 66.1041 124.835 65.7076 124.835 65.0787ZM133.414 67.3004C133.715 67.3004 133.995 67.2662 134.166 67.2389V66.0973C134.057 66.111 133.927 66.1246 133.77 66.1246C133.148 66.1246 132.82 65.9059 132.82 65.1744V61.1412H134.166V59.9655H132.82V58.0924H131.309V59.9655H130.277V61.1412H131.309V65.2633C131.309 66.6989 131.992 67.3004 133.414 67.3004ZM137.393 67.2867C138.343 67.2867 139.177 66.7946 139.594 66.0221H139.621V67.1569H141.105V62.2008C141.105 60.7584 139.991 59.8287 138.234 59.8287C136.463 59.8287 135.39 60.7789 135.287 62.0162L135.281 62.0914H136.675L136.689 62.0299C136.812 61.4557 137.338 61.0524 138.193 61.0524C139.109 61.0524 139.621 61.5309 139.621 62.3239V62.8639L137.666 62.9801C135.964 63.0826 134.993 63.8483 134.993 65.0992V65.1129C134.993 66.4049 135.957 67.2867 137.393 67.2867ZM136.484 65.0787V65.0651C136.484 64.4567 136.976 64.067 137.865 64.0123L139.621 63.903V64.4635C139.621 65.4 138.835 66.1041 137.796 66.1041C137.003 66.1041 136.484 65.7076 136.484 65.0787Z" fill="#292D32"/>
<path d="M49.9109 113.46C49.9023 113.394 49.9009 113.329 49.908 113.263C50.1163 111.148 51.8729 93.3887 52.1683 92.6338C52.4351 91.9518 60.3104 80.6874 60.3104 80.6874L64.1818 85.9614L56.6075 96.0642C56.4377 96.7063 53.7051 108.696 53.7051 108.696C53.7051 108.696 53.1443 110.88 52.8946 112.19C53.0087 112.505 53.1215 112.804 53.2214 113.048C53.4725 113.57 53.7679 113.998 54.0376 114.359C54.3758 114.813 54.9351 115.805 55.0051 116.07C55.085 116.378 55.2305 117.019 55.3119 117.406C55.3932 117.792 55.5059 118.243 55.5245 118.453C55.5359 118.581 55.6672 118.835 55.7685 119.015C55.9197 119.284 55.6615 119.6 55.3704 119.503C55.095 119.412 54.8809 119.055 54.7496 118.834C54.3772 118.208 54.1774 117.063 54.0847 117.125C53.9919 117.184 53.6651 119.127 53.6138 119.345C53.5624 119.565 53.17 121.818 52.9488 122.23C52.7277 122.643 52.4351 122.573 52.3581 122.316C52.291 122.093 52.6021 118.941 52.6021 118.941C52.6021 118.941 52.6406 118.539 52.4651 118.664C52.2896 118.79 52.0013 121.652 51.8786 122.072C51.7559 122.491 51.4762 122.712 51.2394 122.376C50.9511 121.966 51.4462 118.93 51.4462 118.93C51.4462 118.93 51.5019 118.549 51.3392 118.583C51.1766 118.617 50.9725 121.059 50.8455 121.268C50.7185 121.48 50.3989 121.555 50.2462 121.203C50.0664 120.789 50.5316 118.082 50.5316 118.082C50.5316 118.082 50.5087 117.867 50.4074 117.938C50.3061 118.009 49.9836 120.077 49.7724 120.268C49.5955 120.429 49.4485 120.272 49.4485 120.272C49.0618 120.008 49.654 118.042 49.6483 117.065C49.6426 116.087 50.0964 114.988 49.9608 113.824C49.9508 113.753 49.9265 113.573 49.9109 113.46Z" fill="#F8A492"/>
<path d="M54.1573 87.8221L60.8853 92.3384C60.8853 92.3384 64.6768 86.6962 66.713 84.6871C69.263 82.17 65.7841 74.4616 64.1417 74.8983C60.4658 75.8743 54.1573 87.8221 54.1573 87.8221Z" fill="#F47458"/>
<path d="M251 180.019H0V181.731H251V180.019Z" fill="#C9C9C9"/>
</svg>
