<svg width="60" height="60" viewBox="0 0 60 60" fill="none" xmlns="http://www.w3.org/2000/svg">
<path d="M41.625 14.3H18.375C11 14.3 5 20.3 5 27.675V41.625C5 49 11 55 18.375 55H41.625C49 55 55 49 55 41.625V27.675C55 20.3 49 14.3 41.625 14.3ZM36.25 30.05C36.25 28.675 37.375 27.55 38.75 27.55C40.125 27.55 41.25 28.675 41.25 30.05C41.25 31.425 40.125 32.575 38.75 32.575C37.375 32.575 36.25 31.475 36.25 30.1V30.05ZM25.325 40.175C24.95 40.55 24.475 40.725 24 40.725C23.525 40.725 23.05 40.55 22.675 40.175L20.1 37.6L17.625 40.075C17.25 40.45 16.775 40.625 16.3 40.625C15.825 40.625 15.35 40.45 14.975 40.075C14.25 39.35 14.25 38.15 14.975 37.425L17.45 34.95L15.05 32.55C14.325 31.825 14.325 30.625 15.05 29.9C15.775 29.175 16.975 29.175 17.7 29.9L20.1 32.3L22.575 29.825C23.3 29.1 24.5 29.1 25.225 29.825C25.95 30.55 25.95 31.75 25.225 32.475L22.75 34.95L25.325 37.525C26.05 38.25 26.05 39.45 25.325 40.175ZM33.85 37.5C32.475 37.5 31.325 36.375 31.325 35C31.325 33.625 32.425 32.5 33.8 32.5H33.85C35.225 32.5 36.35 33.625 36.35 35C36.35 36.375 35.25 37.5 33.85 37.5ZM38.75 42.425C37.375 42.425 36.25 41.325 36.25 39.95V39.9C36.25 38.525 37.375 37.4 38.75 37.4C40.125 37.4 41.25 38.525 41.25 39.9C41.25 41.275 40.15 42.425 38.75 42.425ZM43.7 37.5C42.325 37.5 41.175 36.375 41.175 35C41.175 33.625 42.275 32.5 43.65 32.5H43.7C45.075 32.5 46.2 33.625 46.2 35C46.2 36.375 45.1 37.5 43.7 37.5Z" fill="#292D32"/>
<path d="M41.625 14.3H18.375C11 14.3 5 20.3 5 27.675V41.625C5 49 11 55 18.375 55H41.625C49 55 55 49 55 41.625V27.675C55 20.3 49 14.3 41.625 14.3ZM36.25 30.05C36.25 28.675 37.375 27.55 38.75 27.55C40.125 27.55 41.25 28.675 41.25 30.05C41.25 31.425 40.125 32.575 38.75 32.575C37.375 32.575 36.25 31.475 36.25 30.1V30.05ZM25.325 40.175C24.95 40.55 24.475 40.725 24 40.725C23.525 40.725 23.05 40.55 22.675 40.175L20.1 37.6L17.625 40.075C17.25 40.45 16.775 40.625 16.3 40.625C15.825 40.625 15.35 40.45 14.975 40.075C14.25 39.35 14.25 38.15 14.975 37.425L17.45 34.95L15.05 32.55C14.325 31.825 14.325 30.625 15.05 29.9C15.775 29.175 16.975 29.175 17.7 29.9L20.1 32.3L22.575 29.825C23.3 29.1 24.5 29.1 25.225 29.825C25.95 30.55 25.95 31.75 25.225 32.475L22.75 34.95L25.325 37.525C26.05 38.25 26.05 39.45 25.325 40.175ZM33.85 37.5C32.475 37.5 31.325 36.375 31.325 35C31.325 33.625 32.425 32.5 33.8 32.5H33.85C35.225 32.5 36.35 33.625 36.35 35C36.35 36.375 35.25 37.5 33.85 37.5ZM38.75 42.425C37.375 42.425 36.25 41.325 36.25 39.95V39.9C36.25 38.525 37.375 37.4 38.75 37.4C40.125 37.4 41.25 38.525 41.25 39.9C41.25 41.275 40.15 42.425 38.75 42.425ZM43.7 37.5C42.325 37.5 41.175 36.375 41.175 35C41.175 33.625 42.275 32.5 43.65 32.5H43.7C45.075 32.5 46.2 33.625 46.2 35C46.2 36.375 45.1 37.5 43.7 37.5Z" fill="url(#paint0_linear_1639_4570)"/>
<path d="M34.1 6.775L34.075 9.125C34.05 11.325 32.225 13.15 30 13.15C29.625 13.15 29.4 13.4 29.4 13.725C29.4 14.05 29.65 14.3 29.975 14.3H25.95C25.925 14.125 25.9 13.925 25.9 13.725C25.9 11.475 27.725 9.65 29.95 9.65C30.325 9.65 30.575 9.4 30.575 9.075L30.6 6.725C30.625 5.775 31.4 5 32.35 5H32.375C33.35 5 34.1 5.8 34.1 6.775Z" fill="#292D32"/>
<path d="M34.1 6.775L34.075 9.125C34.05 11.325 32.225 13.15 30 13.15C29.625 13.15 29.4 13.4 29.4 13.725C29.4 14.05 29.65 14.3 29.975 14.3H25.95C25.925 14.125 25.9 13.925 25.9 13.725C25.9 11.475 27.725 9.65 29.95 9.65C30.325 9.65 30.575 9.4 30.575 9.075L30.6 6.725C30.625 5.775 31.4 5 32.35 5H32.375C33.35 5 34.1 5.8 34.1 6.775Z" fill="url(#paint1_linear_1639_4570)"/>
<defs>
<linearGradient id="paint0_linear_1639_4570" x1="29.9797" y1="9.06175" x2="29.9797" y2="53.2526" gradientUnits="userSpaceOnUse">
<stop stop-color="#F57E20"/>
<stop offset="1" stop-color="#ED1C24"/>
</linearGradient>
<linearGradient id="paint1_linear_1639_4570" x1="29.9967" y1="3.80306" x2="29.9967" y2="13.9007" gradientUnits="userSpaceOnUse">
<stop stop-color="#F57E20"/>
<stop offset="1" stop-color="#ED1C24"/>
</linearGradient>
</defs>
</svg>