<svg width="20" height="21" viewBox="0 0 20 21" fill="none" xmlns="http://www.w3.org/2000/svg">
<path d="M10.3999 1.54555C11.6611 1.54208 12.9105 1.78669 14.0757 2.26522C15.2409 2.74375 16.2988 3.4467 17.1881 4.33336C18.0823 5.21499 18.7912 6.2637 19.2739 7.41879C19.7565 8.57388 20.0033 9.81241 19.9999 11.0627C20.0034 12.3131 19.7567 13.5519 19.2741 14.7071C18.7914 15.8624 18.0824 16.9113 17.1881 17.793C16.2987 18.6795 15.2408 19.3823 14.0756 19.8606C12.9104 20.339 11.661 20.5834 10.3999 20.5798C9.13867 20.5833 7.8893 20.3387 6.72408 19.8602C5.55887 19.3816 4.50098 18.6787 3.61165 17.792C2.71747 16.9104 2.00854 15.8617 1.5259 14.7066C1.04325 13.5515 0.796469 12.313 0.799841 11.0627C0.796339 9.81225 1.04305 8.57353 1.5257 7.41826C2.00836 6.263 2.71736 5.21413 3.61165 4.33239C4.50106 3.4459 5.55899 2.74314 6.7242 2.26477C7.88941 1.78641 9.13874 1.54195 10.3999 1.54555Z" fill="url(#paint0_linear_126_11924)"/>
<path d="M10.4002 19.6141C9.13913 19.6176 7.88987 19.373 6.72476 18.8945C5.55964 18.4161 4.50179 17.7133 3.61244 16.8268C2.71831 15.9451 2.00942 14.8963 1.52681 13.7411C1.0442 12.5859 0.797439 11.3473 0.800815 10.097C0.797439 8.84664 1.0442 7.60804 1.52681 6.45287C2.00942 5.2977 2.71831 4.24889 3.61244 3.36714C4.50179 2.48067 5.55964 1.77787 6.72476 1.29943C7.88987 0.820995 9.13913 0.576412 10.4002 0.57984C11.6614 0.576269 12.9108 0.820783 14.0761 1.29923C15.2413 1.77767 16.2993 2.48054 17.1887 3.36714C18.0829 4.24885 18.7918 5.29765 19.2744 6.45283C19.757 7.60801 20.0037 8.84663 20.0003 10.097C20.0037 11.3473 19.757 12.586 19.2744 13.7411C18.7918 14.8963 18.0829 15.9451 17.1887 16.8268C16.2993 17.7134 15.2413 18.4163 14.0761 18.8947C12.9108 19.3732 11.6614 19.6177 10.4002 19.6141Z" fill="url(#paint1_linear_126_11924)"/>
<path d="M10.4 18.3942C9.30062 18.3974 8.21148 18.1844 7.19567 17.7675C6.17986 17.3505 5.25754 16.738 4.48212 15.9653C3.7028 15.1965 3.085 14.2821 2.66448 13.275C2.24397 12.2679 2.02908 11.1882 2.03226 10.0982C2.02908 9.00822 2.24397 7.92845 2.66448 6.92137C3.085 5.91428 3.7028 4.99989 4.48212 4.23111C5.25754 3.45839 6.17986 2.84583 7.19567 2.4289C8.21148 2.01197 9.30062 1.79895 10.4 1.80217C11.4994 1.79894 12.5885 2.01196 13.6042 2.42889C14.62 2.84582 15.5423 3.45838 16.3176 4.23111C17.0969 4.99989 17.7147 5.91428 18.1352 6.92137C18.5558 7.92845 18.7706 9.00822 18.7675 10.0982C18.7706 11.1882 18.5558 12.2679 18.1352 13.275C17.7147 14.2821 17.0969 15.1965 16.3176 15.9653C15.5423 16.738 14.62 17.3505 13.6042 17.7675C12.5885 18.1844 11.4994 18.3974 10.4 18.3942Z" fill="url(#paint2_linear_126_11924)"/>
<path d="M10.3997 18.2832C9.31476 18.2863 8.24003 18.076 7.23769 17.6644C6.23535 17.2528 5.32531 16.6482 4.56028 15.8855C3.79099 15.127 3.18111 14.2248 2.76594 13.231C2.35078 12.2372 2.13858 11.1716 2.14163 10.096C2.13858 9.02033 2.35078 7.95476 2.76594 6.96097C3.18111 5.96719 3.79099 5.06493 4.56028 4.30644C5.32531 3.54377 6.23535 2.93914 7.23769 2.52758C8.24003 2.11601 9.31476 1.90568 10.3997 1.90877C11.4845 1.90572 12.5593 2.11606 13.5616 2.52763C14.5639 2.93919 15.474 3.5438 16.239 4.30644C17.0083 5.06495 17.6181 5.96721 18.0332 6.961C18.4483 7.95479 18.6605 9.02035 18.6574 10.096C18.6605 11.1716 18.4483 12.2372 18.0332 13.231C17.6181 14.2248 17.0083 15.127 16.239 15.8855C15.474 16.6482 14.5639 17.2528 13.5616 17.6644C12.5593 18.0759 11.4845 18.2863 10.3997 18.2832Z" fill="url(#paint3_linear_126_11924)"/>
<path d="M10.3996 18.1165C14.7743 18.1165 18.3207 14.6003 18.3207 10.263C18.3207 5.92562 14.7743 2.4095 10.3996 2.4095C6.02491 2.4095 2.47852 5.92562 2.47852 10.263C2.47852 14.6003 6.02491 18.1165 10.3996 18.1165Z" fill="#222121"/>
<path d="M10.3999 17.9834C9.37673 17.9861 8.36323 17.7874 7.41803 17.3991C6.47284 17.0107 5.61474 16.4403 4.89341 15.7209C4.16784 15.0057 3.59254 14.155 3.20083 13.2179C2.80911 12.2809 2.60875 11.2761 2.61135 10.2617C2.60875 9.24737 2.80911 8.24258 3.20083 7.30551C3.59254 6.36844 4.16784 5.51772 4.89341 4.80259C5.61474 4.08317 6.47284 3.51276 7.41803 3.12438C8.36323 2.73601 9.37673 2.53738 10.3999 2.54001C11.423 2.53737 12.4364 2.73599 13.3816 3.12437C14.3267 3.51275 15.1848 4.08316 15.906 4.80259C16.6316 5.51772 17.2069 6.36844 17.5986 7.30551C17.9903 8.24258 18.1907 9.24737 18.1881 10.2617C18.1907 11.2761 17.9903 12.2809 17.5986 13.2179C17.2069 14.155 16.6316 15.0057 15.906 15.7209C15.1848 16.4403 14.3267 17.0107 13.3816 17.3991C12.4364 17.7875 11.423 17.9861 10.3999 17.9834Z" fill="url(#paint4_linear_126_11924)"/>
<path style="mix-blend-mode:overlay" d="M14.431 6.54975C14.5142 6.33444 14.6271 6.13164 14.7666 5.94717L14.7612 5.93619H12.3114L12.3053 5.95117C12.6069 6.35118 12.7769 6.83352 12.7923 7.33267C12.0897 7.52303 11.3994 7.75571 10.7254 8.02941L9.09536 5.95949L9.04703 5.93619H6.13372V5.93985C6.33508 6.19772 6.46932 6.42997 6.53845 6.63027C6.60758 6.8369 6.64282 7.11207 6.64282 7.44846V10.3479C5.41299 11.276 4.30796 12.3563 3.35464 13.5624C2.86427 12.5312 2.61106 11.4048 2.61331 10.2647C2.61065 9.25035 2.81098 8.24553 3.2027 7.30846C3.59442 6.37139 4.16975 5.52067 4.89536 4.80557C5.61661 4.08613 6.47465 3.5157 7.4198 3.12733C8.36494 2.73895 9.3784 2.54034 10.4015 2.54299C11.4246 2.54034 12.4381 2.73895 13.3832 3.12733C14.3283 3.5157 15.1864 4.08613 15.9076 4.80557C16.4724 5.36393 16.9477 6.00464 17.3171 6.70547C16.3153 6.71808 15.3163 6.81312 14.3303 6.98962C14.3478 6.83983 14.3815 6.69234 14.431 6.54975Z" fill="url(#paint5_linear_126_11924)"/>
<path fill-rule="evenodd" clip-rule="evenodd" d="M8.51258 5.63295L8.83441 5.88283L8.93527 4.95778L9.0487 5.88243L9.37267 5.6335L9.12176 5.94543L10.049 6.06197L9.12117 6.16561L9.3669 6.47999L9.05281 6.23164L8.93527 7.15098L8.83075 6.23122L8.51835 6.48053L8.76996 6.16197L7.83691 6.06197L8.76956 5.9495L8.51258 5.63295Z" fill="white"/>
<path fill-rule="evenodd" clip-rule="evenodd" d="M6.10037 10.736L6.28914 10.8826L6.34832 10.3398L6.41486 10.8822L6.60493 10.7362L6.45777 10.9192L7.00144 10.9875L6.45721 11.0483L6.60141 11.2328L6.41723 11.0871L6.34832 11.6261L6.28704 11.0868L6.10388 11.233L6.25144 11.0462L5.7041 10.9875L6.251 10.9215L6.10037 10.736Z" fill="white"/>
<path fill-rule="evenodd" clip-rule="evenodd" d="M13.662 8.10828L13.8508 8.25482L13.9098 7.71313L13.9763 8.25459L14.1664 8.10849L14.0184 8.2925L14.563 8.36095L14.0197 8.42163L14.1631 8.60505L13.9789 8.4594L13.9098 8.9994L13.8485 8.45915L13.6654 8.60526L13.8121 8.41951L13.2656 8.36095L13.8135 8.29487L13.662 8.10828Z" fill="white"/>
<g filter="url(#filter0_dd_126_11924)">
<path d="M13.4342 8.63661C13.3534 8.3747 13.2418 8.14026 13.0996 7.93332C12.9605 7.72313 12.7924 7.54367 12.5951 7.39493C12.4011 7.24619 12.178 7.13463 11.9258 7.06026C11.6736 6.98265 11.3987 6.94385 11.1012 6.94385C10.5677 6.94385 10.0923 7.07804 9.67522 7.34643C9.25809 7.61481 8.92989 8.0093 8.6906 8.52991C8.45455 9.04728 8.33653 9.67782 8.33653 10.4215C8.33653 11.1717 8.45455 11.8071 8.6906 12.3277C8.92665 12.8483 9.25486 13.2444 9.67522 13.516C10.0956 13.7844 10.5838 13.9186 11.14 13.9186C11.6445 13.9186 12.081 13.8216 12.4496 13.6276C12.8215 13.4336 13.1076 13.1587 13.3081 12.803C13.5086 12.4441 13.6088 12.0238 13.6088 11.542L14.0163 11.605H11.3195V10.1984H15.3501V11.3916C15.3501 12.242 15.169 12.9777 14.8069 13.5985C14.4447 14.2193 13.9467 14.6979 13.313 15.0342C12.6792 15.3673 11.9516 15.5338 11.1303 15.5338C10.2152 15.5338 9.41169 15.3285 8.71971 14.9178C8.03096 14.5039 7.49257 13.917 7.10454 13.1571C6.71975 12.394 6.52735 11.4886 6.52735 10.4409C6.52735 9.63902 6.64053 8.92278 6.86688 8.29224C7.09646 7.6617 7.41658 7.12654 7.82724 6.68678C8.23791 6.24378 8.71971 5.90749 9.27264 5.67791C9.82558 5.44509 10.427 5.32869 11.077 5.32869C11.6267 5.32869 12.1392 5.40953 12.6145 5.5712C13.0899 5.72965 13.5118 5.956 13.8805 6.25025C14.2523 6.5445 14.5579 6.89373 14.7972 7.29792C15.0365 7.70212 15.1933 8.14835 15.2677 8.63661H13.4342Z" fill="url(#paint6_linear_126_11924)"/>
<path d="M13.4342 8.63661L13.2874 8.68193L13.3208 8.79027H13.4342V8.63661ZM13.0996 7.93332L12.9714 8.01811L12.9729 8.02037L13.0996 7.93332ZM12.5951 7.39493L12.5016 7.51688L12.5026 7.51761L12.5951 7.39493ZM11.9258 7.06026L11.8806 7.20713L11.8823 7.20764L11.9258 7.06026ZM9.67522 7.34643L9.75836 7.47565H9.75836L9.67522 7.34643ZM8.6906 8.52991L8.55099 8.46573L8.55081 8.46612L8.6906 8.52991ZM8.6906 12.3277L8.55066 12.3912L8.6906 12.3277ZM9.67522 13.516L9.59183 13.6451L9.59253 13.6456L9.67522 13.516ZM12.4496 13.6276L12.3785 13.4914L12.378 13.4916L12.4496 13.6276ZM13.3081 12.8031L13.442 12.8785L13.4423 12.878L13.3081 12.8031ZM13.6088 11.542L13.6323 11.3901L13.4552 11.3627V11.542H13.6088ZM14.0163 11.605V11.7587L14.0398 11.4532L14.0163 11.605ZM11.3195 11.605H11.1658V11.7587H11.3195V11.605ZM11.3195 10.1984V10.0448H11.1658V10.1984H11.3195ZM15.3501 10.1984H15.5038V10.0448H15.3501V10.1984ZM14.8069 13.5985L14.9396 13.6759L14.8069 13.5985ZM13.313 15.0342L13.3845 15.1702L13.385 15.1699L13.313 15.0342ZM8.71971 14.9178L8.64056 15.0495L8.64128 15.0499L8.71971 14.9178ZM7.10454 13.1571L6.96734 13.2263L6.9677 13.227L7.10454 13.1571ZM6.86688 8.29224L6.72249 8.23967L6.72226 8.24032L6.86688 8.29224ZM7.82724 6.68678L7.93955 6.79165L7.93993 6.79124L7.82724 6.68678ZM9.27264 5.67791L9.33157 5.81982L9.33227 5.81953L9.27264 5.67791ZM12.6145 5.5712L12.565 5.71668L12.5659 5.71698L12.6145 5.5712ZM13.8805 6.25025L13.7846 6.37034L13.7851 6.37075L13.8805 6.25025ZM14.7972 7.29792L14.9294 7.21964L14.7972 7.29792ZM15.2677 8.63661V8.79027H15.4465L15.4196 8.61348L15.2677 8.63661ZM13.5811 8.5913C13.496 8.31588 13.378 8.06714 13.2262 7.84626L12.9729 8.02037C13.1056 8.21339 13.2107 8.43352 13.2874 8.68193L13.5811 8.5913ZM13.2277 7.84854C13.0792 7.62408 12.8991 7.43172 12.6876 7.27224L12.5026 7.51761C12.6856 7.65563 12.8418 7.82218 12.9714 8.0181L13.2277 7.84854ZM12.6886 7.27298C12.4785 7.11192 12.2382 6.99217 11.9692 6.91287L11.8823 7.20764C12.1178 7.27708 12.3237 7.38045 12.5016 7.51687L12.6886 7.27298ZM11.971 6.91339C11.7024 6.83075 11.4121 6.79019 11.1012 6.79019V7.09751C11.3853 7.09751 11.6447 7.13455 11.8806 7.20712L11.971 6.91339ZM11.1012 6.79019C10.5405 6.79019 10.0359 6.93165 9.59208 7.2172L9.75836 7.47565C10.1488 7.22443 10.5948 7.09751 11.1012 7.09751V6.79019ZM9.59208 7.2172C9.14667 7.50378 8.80057 7.92273 8.55099 8.46573L8.83022 8.59408C9.05921 8.09588 9.36951 7.72584 9.75836 7.47565L9.59208 7.2172ZM8.55081 8.46612C8.30327 9.00867 8.18287 9.66229 8.18287 10.4215H8.49019C8.49019 9.69335 8.60584 9.08588 8.8304 8.59369L8.55081 8.46612ZM8.18287 10.4215C8.18287 11.1871 8.30322 11.8454 8.55066 12.3912L8.83055 12.2643C8.60589 11.7688 8.49019 11.1564 8.49019 10.4215H8.18287ZM8.55066 12.3912C8.7971 12.9347 9.14333 13.3553 9.59183 13.6451L9.75861 13.387C9.36638 13.1335 9.0562 12.7619 8.83055 12.2643L8.55066 12.3912ZM9.59253 13.6456C10.0404 13.9315 10.558 14.0723 11.14 14.0723V13.765C10.6097 13.765 10.1508 13.6374 9.75791 13.3865L9.59253 13.6456ZM11.14 14.0723C11.6642 14.0723 12.1263 13.9714 12.5212 13.7636L12.378 13.4916C12.0357 13.6718 11.6247 13.765 11.14 13.765V14.0723ZM12.5207 13.7638C12.9182 13.5565 13.2265 13.2608 13.442 12.8785L13.1743 12.7276C12.9888 13.0566 12.7248 13.3107 12.3785 13.4914L12.5207 13.7638ZM13.4423 12.878C13.6576 12.4925 13.7625 12.0455 13.7625 11.542H13.4552C13.4552 12.0021 13.3596 12.3958 13.174 12.7281L13.4423 12.878ZM13.5853 11.6938L13.9928 11.7569L14.0398 11.4532L13.6323 11.3901L13.5853 11.6938ZM14.0163 11.4514H11.3195V11.7587H14.0163V11.4514ZM11.4731 11.605V10.1984H11.1658V11.605H11.4731ZM11.3195 10.3521H15.3501V10.0448H11.3195V10.3521ZM15.1965 10.1984V11.3916H15.5038V10.1984H15.1965ZM15.1965 11.3916C15.1965 12.2198 15.0203 12.9277 14.6741 13.5211L14.9396 13.6759C15.3178 13.0276 15.5038 12.2642 15.5038 11.3916H15.1965ZM14.6741 13.5211C14.3264 14.1173 13.8494 14.5756 13.2409 14.8985L13.385 15.1699C14.0441 14.8202 14.5631 14.3214 14.9396 13.6759L14.6741 13.5211ZM13.2415 14.8982C12.6328 15.2181 11.9304 15.3801 11.1303 15.3801V15.6874C11.9729 15.6874 12.7256 15.5165 13.3845 15.1702L13.2415 14.8982ZM11.1303 15.3801C10.239 15.3801 9.46326 15.1804 8.79813 14.7857L8.64128 15.0499C9.36011 15.4765 10.1915 15.6874 11.1303 15.6874V15.3801ZM8.79885 14.7861C8.13629 14.3879 7.61719 13.8232 7.24139 13.0872L6.9677 13.227C7.36795 14.0108 7.92563 14.6199 8.64056 15.0495L8.79885 14.7861ZM7.24175 13.0879C6.86995 12.3506 6.68101 11.4699 6.68101 10.4409H6.3737C6.3737 11.5073 6.56956 12.4374 6.96734 13.2263L7.24175 13.0879ZM6.68101 10.4409C6.68101 9.65332 6.79218 8.95513 7.0115 8.34416L6.72226 8.24032C6.48888 8.89044 6.3737 9.62471 6.3737 10.4409H6.68101ZM7.01126 8.34481C7.23459 7.73144 7.54453 7.21467 7.93955 6.79165L7.71494 6.58191C7.28864 7.03842 6.95833 7.59195 6.72249 8.23967L7.01126 8.34481ZM7.93993 6.79124C8.33571 6.3643 8.79922 6.04085 9.33157 5.81982L9.21372 5.536C8.64019 5.77413 8.1401 6.12327 7.71456 6.58232L7.93993 6.79124ZM9.33227 5.81953C9.86481 5.5953 10.4458 5.48235 11.077 5.48235V5.17503C10.4083 5.17503 9.78635 5.29489 9.21301 5.53629L9.33227 5.81953ZM11.077 5.48235C11.6114 5.48235 12.1071 5.56091 12.565 5.71668L12.664 5.42573C12.1713 5.25814 11.6419 5.17503 11.077 5.17503V5.48235ZM12.5659 5.71698C13.0252 5.87006 13.431 6.08805 13.7846 6.37034L13.9763 6.13016C13.5927 5.82395 13.1545 5.58923 12.6631 5.42543L12.5659 5.71698ZM13.7851 6.37075C14.1423 6.65342 14.4354 6.98838 14.6649 7.3762L14.9294 7.21964C14.6804 6.79908 14.3623 6.43559 13.9758 6.12975L13.7851 6.37075ZM14.6649 7.3762C14.8937 7.76258 15.0442 8.18994 15.1157 8.65975L15.4196 8.61348C15.3424 8.10676 15.1792 7.64165 14.9294 7.21964L14.6649 7.3762ZM15.2677 8.48295H13.4342V8.79027H15.2677V8.48295Z" fill="#A27F03"/>
</g>
<defs>
<filter id="filter0_dd_126_11924" x="5.55173" y="4.84088" width="10.7745" height="12.1563" filterUnits="userSpaceOnUse" color-interpolation-filters="sRGB">
<feFlood flood-opacity="0" result="BackgroundImageFix"/>
<feColorMatrix in="SourceAlpha" type="matrix" values="0 0 0 0 0 0 0 0 0 0 0 0 0 0 0 0 0 0 127 0" result="hardAlpha"/>
<feOffset dy="0.487805"/>
<feComposite in2="hardAlpha" operator="out"/>
<feColorMatrix type="matrix" values="0 0 0 0 0.495833 0 0 0 0 0.335679 0 0 0 0 0.0247917 0 0 0 1 0"/>
<feBlend mode="normal" in2="BackgroundImageFix" result="effect1_dropShadow_126_11924"/>
<feColorMatrix in="SourceAlpha" type="matrix" values="0 0 0 0 0 0 0 0 0 0 0 0 0 0 0 0 0 0 127 0" result="hardAlpha"/>
<feOffset dy="0.487805"/>
<feGaussianBlur stdDeviation="0.487805"/>
<feComposite in2="hardAlpha" operator="out"/>
<feColorMatrix type="matrix" values="0 0 0 0 0.825 0 0 0 0 0.588912 0 0 0 0 0.130625 0 0 0 0.6 0"/>
<feBlend mode="normal" in2="effect1_dropShadow_126_11924" result="effect2_dropShadow_126_11924"/>
<feBlend mode="normal" in="SourceGraphic" in2="effect2_dropShadow_126_11924" result="shape"/>
</filter>
<linearGradient id="paint0_linear_126_11924" x1="19.9999" y1="11.0627" x2="0.799841" y2="11.0627" gradientUnits="userSpaceOnUse">
<stop stop-color="#DAAB34"/>
<stop offset="0.33" stop-color="#CC5C2C"/>
<stop offset="0.47" stop-color="#BC601E"/>
<stop offset="0.62" stop-color="#B46318"/>
<stop offset="0.71" stop-color="#B15907"/>
<stop offset="1" stop-color="#F78430"/>
</linearGradient>
<linearGradient id="paint1_linear_126_11924" x1="0.800815" y1="10.097" x2="19.9993" y2="10.097" gradientUnits="userSpaceOnUse">
<stop stop-color="#F9F17E"/>
<stop offset="0.33" stop-color="#CC9E2C"/>
<stop offset="0.47" stop-color="#DFC14F"/>
<stop offset="0.62" stop-color="#F2E471"/>
<stop offset="0.71" stop-color="#F9F17E"/>
<stop offset="1" stop-color="#CEA132"/>
</linearGradient>
<linearGradient id="paint2_linear_126_11924" x1="10.4702" y1="18.3623" x2="10.3075" y2="-1.09329" gradientUnits="userSpaceOnUse">
<stop stop-color="#CC9E2C"/>
<stop offset="0.03" stop-color="#D6AE38"/>
<stop offset="0.1" stop-color="#EBCF51"/>
<stop offset="0.17" stop-color="#F8E460"/>
<stop offset="0.21" stop-color="#FDEB66"/>
<stop offset="0.26" stop-color="#FAE764"/>
<stop offset="0.31" stop-color="#F0DB5E"/>
<stop offset="0.35" stop-color="#E1C753"/>
<stop offset="0.4" stop-color="#CAAB44"/>
<stop offset="0.45" stop-color="#AE8732"/>
<stop offset="0.46" stop-color="#A67C2C"/>
<stop offset="0.49" stop-color="#B38F39"/>
<stop offset="0.55" stop-color="#CCB252"/>
<stop offset="0.61" stop-color="#E0CE65"/>
<stop offset="0.67" stop-color="#EEE173"/>
<stop offset="0.73" stop-color="#F6ED7B"/>
<stop offset="0.8" stop-color="#F9F17E"/>
<stop offset="1" stop-color="#CEA132"/>
</linearGradient>
<linearGradient id="paint3_linear_126_11924" x1="10.4688" y1="18.2516" x2="10.3085" y2="-0.943098" gradientUnits="userSpaceOnUse">
<stop stop-color="#FED900"/>
<stop offset="0.5" stop-color="#7E2A35"/>
<stop offset="1" stop-color="#4A272A"/>
</linearGradient>
<linearGradient id="paint4_linear_126_11924" x1="10.3901" y1="2.54267" x2="10.4093" y2="18.0407" gradientUnits="userSpaceOnUse">
<stop stop-color="#FFF450"/>
<stop offset="0.5" stop-color="#F9A91A"/>
<stop offset="1" stop-color="#DA5026"/>
</linearGradient>
<linearGradient id="paint5_linear_126_11924" x1="4.43224" y1="-1.16498" x2="10.7503" y2="11.1371" gradientUnits="userSpaceOnUse">
<stop offset="0.31" stop-color="white"/>
<stop offset="0.92" stop-color="white" stop-opacity="0"/>
</linearGradient>
<linearGradient id="paint6_linear_126_11924" x1="13.2998" y1="18.5343" x2="6.36648" y2="-7.3439" gradientUnits="userSpaceOnUse">
<stop stop-color="#F9F17E"/>
<stop offset="0.16" stop-color="#CEA132"/>
<stop offset="0.36" stop-color="#F9F17E"/>
<stop offset="0.41" stop-color="#F5EB7A"/>
<stop offset="0.49" stop-color="#E8D96D"/>
<stop offset="0.59" stop-color="#D4BD59"/>
<stop offset="0.69" stop-color="#B8953E"/>
<stop offset="0.74" stop-color="#A67C2C"/>
<stop offset="0.89" stop-color="#F9F17E"/>
<stop offset="1" stop-color="#CEA132"/>
</linearGradient>
</defs>
</svg>
