<svg width="40" height="40" viewBox="0 0 40 40" fill="none" xmlns="http://www.w3.org/2000/svg">
<path d="M29.5037 10.133C29.08 11.028 28.4932 12.1685 27.6955 13.5012C27.2217 14.2944 26.8461 15.377 26.3694 16.1438C26.3694 16.1438 26.1687 15.8455 26.049 15.8239C25.7806 15.7771 25.3212 15.7322 25.1365 15.9352C24.9519 16.1383 25.1697 16.6449 25.3235 16.935C25.384 17.0522 25.4362 17.1353 25.4442 17.1498C24.2459 19.0517 23.31 20.7519 23.31 20.7519C23.31 20.7519 18.112 21.7161 13.8096 24.4931C12.3176 25.4573 12.5154 24.9187 13.404 23.8054C15.0841 21.7117 19.2234 17.5871 19.2234 17.5871L30.4141 7.96102" fill="#776483"/>
<path d="M29.5033 10.133C28.6339 11.7602 27.2775 13.9292 26.0452 15.8253C25.7768 15.7785 25.3174 15.7336 25.1328 15.9366C24.9481 16.1397 25.1659 16.6463 25.3197 16.9364C24.1367 18.7271 23.2152 20.0617 23.2152 20.0617C23.2152 20.0617 17.964 21.3503 13.8092 24.4931L13.4036 23.8054L12.5785 22.3961L12.5761 22.3951L12.4497 22.1807L19.8909 15.7311L23.3458 13.0838C23.3468 13.0815 23.3468 13.0815 23.3501 13.0801L29.1574 8.62589" fill="url(#paint0_linear_127_14495)"/>
<path d="M29.3479 8.47812C26.5302 10.6597 18.468 16.9891 12.7366 22.5088L12.5816 22.3971L10.4273 20.8568C10.4273 20.8568 10.5602 20.772 10.7876 20.6007C10.7876 20.6007 10.7886 20.5983 10.7944 20.5979C11.7439 19.8842 14.289 17.6792 15.6511 13.7211C15.6511 13.7211 15.7057 13.6906 15.8071 13.6347C16.6238 13.1876 20.5015 11.0787 24.0696 9.46766C24.0837 9.48749 24.1012 9.50592 24.1188 9.52436C24.2329 9.64706 24.4388 9.70996 24.7702 9.46986C24.9806 9.31941 25.1082 9.19339 25.1843 9.09072" fill="url(#paint1_linear_127_14495)"/>
<path d="M8.69552 22.8452L6.31552 25.7111C6.31552 25.7111 8.00195 27.0382 8.22524 27.93L11.3646 26.1191C11.3622 26.1181 11.0118 24.3184 8.69552 22.8452Z" fill="url(#paint2_linear_127_14495)"/>
<path d="M3.90847 29.7703C2.98956 28.7023 3.3872 25.5886 3.94524 25.4423C4.50567 25.297 6.31579 25.7111 6.31579 25.7111C7.87055 26.3437 8.2255 27.93 8.2255 27.93C8.2255 27.93 8.33317 30.0595 8.09428 30.2653C8.0463 30.3069 7.88412 30.3543 7.64287 30.397C6.70964 30.5584 4.64057 30.6212 3.90847 29.7703Z" fill="url(#paint3_linear_127_14495)"/>
<path opacity="0.5" d="M3.90796 29.7703C2.98905 28.7023 3.38669 25.5886 3.94473 25.4423C4.12682 25.4143 6.70399 27.5602 7.39986 28.9103C8.09475 30.2629 8.09475 30.2629 8.09475 30.2629L7.64335 30.3946C6.70913 30.5584 4.64006 30.6212 3.90796 29.7703Z" fill="#DE376D"/>
<path opacity="0.5" d="M7.30751 24.5151C9.25707 23.4245 8.52349 27.7547 8.52349 27.7547L11.3615 26.1181C11.3615 26.1181 10.8668 24.9099 9.91798 23.9749C8.96679 23.0389 8.2374 23.3964 8.2374 23.3964L7.30751 24.5151Z" fill="#BE2F55"/>
<path opacity="0.7" d="M3.40316 26.8922C3.36398 27.3986 4.08736 25.8675 4.95388 26.4275C5.82139 26.9851 5.57368 29.1967 6.01254 29.6691C6.4514 30.1414 7.78457 29.6621 7.78457 29.6621C7.78457 29.6621 6.99068 28.0086 5.47482 26.6544C3.95895 25.3001 3.93351 25.3818 3.83903 25.502C3.74694 25.6231 3.44524 26.3451 3.40316 26.8922Z" fill="#DE376D"/>
<path d="M3.52442 27.5041C3.63864 27.0595 4.12205 28.0925 4.13808 28.5939C4.15509 29.0928 3.61411 28.6983 3.55425 28.4919C3.493 28.2821 3.49371 27.6256 3.52442 27.5041Z" fill="white"/>
<path d="M5.57916 21.5748C5.2869 21.1938 6.15567 18.8593 6.49176 18.5065C6.82885 18.1514 10.4283 19.8262 12.3219 22.03C14.2155 24.2338 15.1289 27.7115 15.0425 28.0418C14.9584 28.3731 12.4672 29.4825 12.0966 29.1558C11.727 28.8267 11.1573 25.9162 9.60985 24.1184C8.06101 22.3172 5.89592 21.991 5.57916 21.5748Z" fill="url(#paint4_linear_127_14495)"/>
<path d="M5.57996 21.5748C5.64981 21.9866 7.86502 23.8456 7.86502 23.8456C7.86502 23.8456 8.83747 23.8123 9.69205 24.8061C10.5466 25.8 10.2334 26.7994 10.2334 26.7994C10.2334 26.7994 11.8083 29.1116 12.0994 29.1511C12.3904 29.1906 11.9847 26.6469 10.0489 24.3222C8.11314 21.9976 5.57996 21.5748 5.57996 21.5748Z" fill="url(#paint5_linear_127_14495)"/>
<path d="M12.7586 22.5824C11.7333 21.3865 9.7637 23.3827 9.75385 23.6832C9.74498 23.9814 11.0692 25.6029 11.452 26.5076C11.8348 27.4124 14.1519 26.3454 14.352 26.2131C14.5545 26.0817 13.65 23.6223 12.7586 22.5824Z" fill="white"/>
<path d="M7.58346 26.6639C7.17093 26.236 6.4787 27.1316 6.46327 27.3376C6.44784 27.5437 7.4313 28.7865 7.62144 29.2453C7.80819 29.7056 8.17187 28.0982 8.05406 27.6469C7.93287 27.1971 7.58346 26.6639 7.58346 26.6639Z" fill="white"/>
<path opacity="0.2" d="M8.25362 19.0121C7.92791 18.8605 6.52775 21.0002 6.4305 21.3903C6.33563 21.7814 8.46612 22.711 8.69326 22.8442C8.92279 22.9784 10.1673 20.9447 10.1506 20.5326C10.1364 20.1214 8.66661 19.2027 8.25362 19.0121Z" fill="#E02774"/>
<path d="M12.7583 22.5824C12.7583 22.5824 12.0644 23.7792 12.5618 24.4071C13.0592 25.0351 14.0909 25.1017 14.0909 25.1017C14.0909 25.1017 13.7517 23.7204 12.7583 22.5824Z" fill="white"/>
<path d="M6.6767 27.884C6.89991 27.5069 7.81331 28.5949 7.52825 29.2092C7.52825 29.2092 6.3678 28.4073 6.6767 27.884Z" fill="white"/>
<path opacity="0.5" d="M6.02246 19.4187C6.02246 19.4187 5.55236 21.2224 5.63746 21.5231C5.72255 21.8239 6.45864 21.7066 7.29794 22.1771C8.13585 22.6442 7.56431 23.5926 7.56431 23.5926C7.56431 23.5926 5.78321 22.1229 5.57878 21.5771C5.37534 21.0289 6.02246 19.4187 6.02246 19.4187Z" fill="#BE2F55"/>
<path opacity="0.5" d="M11.8859 27.8302C11.5349 27.2265 10.6639 27.0755 10.6364 27.2095C10.6089 27.3434 11.7254 28.8929 12.0982 29.1534C12.471 29.414 14.0099 28.7012 14.0099 28.7012C14.0099 28.7012 12.8726 28.957 12.5273 28.8056C12.1829 28.6519 11.8859 27.8302 11.8859 27.8302Z" fill="#BE2F55"/>
<path opacity="0.5" d="M29.9239 7.55948C29.8196 7.65605 26.2099 10.7311 23.3465 13.0838C21.5917 14.5206 20.1189 15.6883 19.8915 15.7311C19.2911 15.8514 15.7304 14.3464 16.2232 13.8378C19.0111 11.9037 21.7988 10.5034 24.1255 9.52152C24.2396 9.64422 24.4455 9.70712 24.7769 9.46702C24.9873 9.31658 25.1149 9.19056 25.191 9.08789" fill="white"/>
<path opacity="0.38" d="M22.4401 20.0706C23.0785 19.4601 21.2051 15.979 20.9244 15.7119C20.6414 15.4438 14.1211 21.2825 13.5681 21.8892C13.0126 22.4949 14.0671 23.9711 14.085 24.1239C14.1028 24.2766 16.6335 22.1941 18.9856 21.1305C21.3362 20.0635 22.4401 20.0706 22.4401 20.0706Z" fill="#B88974"/>
<path opacity="0.8" d="M28.4512 9.17752C28.4512 9.17752 20.3984 15.167 15.2058 20.2223C15.2058 20.2223 18.4781 16.4569 19.9328 15.1643C21.3851 13.8707 28.4512 9.17752 28.4512 9.17752Z" fill="white"/>
<path d="M21.3492 14.297C21.2835 14.7729 22.8947 13.8246 23.1098 13.1227C23.3273 12.4218 21.3959 13.9614 21.3492 14.297Z" fill="white"/>
<path opacity="0.2" d="M10.7975 20.5965C11.747 19.8829 14.2922 17.6778 15.6543 13.7197C15.6543 13.7197 15.7088 13.6892 15.8102 13.6333C15.9243 13.8371 16.5343 15.0706 15.9846 16.7967C15.394 18.6483 11.0019 20.5079 10.7975 20.5965Z" fill="#B88974"/>
<path d="M20.9542 11.0788C22.6741 10.3404 22.2895 11.6541 20.7215 12.7209C19.1534 13.7877 17.6982 12.6178 17.8265 12.5508C17.9549 12.4838 20.9542 11.0788 20.9542 11.0788Z" fill="white"/>
<path opacity="0.5" d="M30.136 8.23445C30.0237 7.9588 26.5127 10.8427 26.5127 10.8427C26.0256 11.513 26.6117 14.3298 26.9199 14.3009C27.2296 14.2754 30.2472 8.51249 30.136 8.23445Z" fill="#A28993"/>
<path opacity="0.5" d="M23.2171 20.0651L23.3056 20.7557C23.3056 20.7557 19.9924 21.3934 18.2039 22.2097C16.4144 23.0283 19.214 21.0795 23.2171 20.0651Z" fill="#BE2F55"/>
<path d="M26.3684 16.1462C26.3684 16.1462 25.5679 15.8791 25.2821 15.9955C24.993 16.1134 25.1247 16.4837 25.1247 16.4837C25.1247 16.4837 24.9625 15.9778 25.0858 15.808C25.1638 15.7006 25.6982 15.6926 26.0471 15.8287C26.2457 15.9026 26.3254 16.1284 26.3684 16.1462Z" fill="#663F6D"/>
<path d="M25.2731 8.94316C25.2731 8.94316 25.211 9.12704 24.8179 9.50931C24.4249 9.89157 24.148 9.54776 24.148 9.54776C24.148 9.54776 24.3929 9.60442 24.7002 9.44939C25.0095 9.28958 25.2731 8.94316 25.2731 8.94316Z" fill="#776483"/>
<path opacity="0.3" d="M21.0328 15.5583C20.9599 14.9244 23.9157 12.909 24.3312 12.891C24.7467 12.873 24.7955 17.6221 24.204 18.551C23.615 19.481 22.7123 19.6969 22.5867 19.3319C22.4635 18.9679 21.0328 15.5583 21.0328 15.5583Z" fill="white"/>
<path opacity="0.5" d="M12.9605 18.5101C12.9605 18.5101 14.9213 16.4069 15.4266 15.146C15.9319 13.8851 16.1075 13.7175 16.5685 13.3466C17.0271 12.9747 20.8306 11.0112 20.8306 11.0112C20.8306 11.0112 16.3012 13.2024 15.6562 13.7207C15.6562 13.7207 14.6975 16.7586 12.9605 18.5101Z" fill="#862F68"/>
<path d="M8.25289 19.0121C8.25289 19.0121 10.8053 20.0298 12.81 22.2824C14.8138 24.5374 15.0347 27.8178 15.0347 27.8178C15.0347 27.8178 14.2959 24.3705 12.5809 22.3971C10.8681 20.4247 8.25289 19.0121 8.25289 19.0121Z" fill="url(#paint6_linear_127_14495)"/>
<path d="M10.5154 6.86464C11.4303 7.24359 12.5984 7.77334 13.9688 8.50426C14.7845 8.93827 15.8843 9.25991 16.6737 9.69826C16.6737 9.69826 16.3857 9.91344 16.3701 10.034C16.3365 10.3044 16.3144 10.7654 16.5263 10.9399C16.7382 11.1143 17.2334 10.8717 17.5156 10.7037C17.6297 10.6376 17.7101 10.5813 17.7242 10.5726C19.6829 11.6755 21.4273 12.5263 21.4273 12.5263C21.4273 12.5263 22.647 17.6703 25.6332 21.8303C26.6699 23.2729 26.1222 23.1019 24.9663 22.2694C22.7922 20.6947 18.4682 16.7642 18.4682 16.7642L8.30114 6.06258" fill="#776483"/>
<path d="M10.5154 6.86464C12.1835 7.65257 14.4169 8.90018 16.3716 10.0373C16.338 10.3077 16.3159 10.7687 16.5278 10.9432C16.7397 11.1176 17.235 10.875 17.5171 10.707C19.3641 11.8002 20.7425 12.6546 20.7425 12.6546C20.7425 12.6546 22.2889 17.8358 25.6331 21.8303L24.9662 22.2694L23.5995 23.1631L23.5986 23.1655L23.3906 23.3024L16.5814 16.1888L13.7668 12.8689C13.7643 12.868 13.7643 12.868 13.7628 12.8647L9.02721 7.28449" fill="url(#paint7_linear_127_14495)"/>
<path d="M8.87037 7.10229C11.1885 9.80884 17.9083 17.5486 23.7044 23.0004L23.6005 23.1607L22.1684 25.3885C22.1684 25.3885 22.0772 25.2599 21.8949 25.0412C21.8949 25.0412 21.8924 25.0403 21.8917 25.0346C21.1321 24.1215 18.804 21.6884 14.7834 20.5234C14.7834 20.5234 14.7503 20.4704 14.6895 20.3719C14.2025 19.5782 11.9047 15.8095 10.1194 12.3253C10.1385 12.3102 10.1561 12.2918 10.1736 12.2734C10.2905 12.1534 10.3432 11.9446 10.087 11.6255C9.92635 11.4227 9.79417 11.3015 9.68787 11.2306" fill="url(#paint8_linear_127_14495)"/>
<path d="M24.2391 27.0197L27.2191 29.2553C27.2191 29.2553 28.4613 27.5053 29.3409 27.2383L27.3772 24.1922C27.3764 24.1946 25.5962 24.6335 24.2391 27.0197Z" fill="url(#paint9_linear_127_14495)"/>
<path d="M31.3923 31.4591C30.371 32.4297 27.2414 32.1863 27.0678 31.6362C26.895 31.0836 27.2192 29.2553 27.2192 29.2553C27.7742 27.6711 29.341 27.2383 29.341 27.2383C29.341 27.2383 31.4627 27.0256 31.6799 27.254C31.7239 27.2999 31.7793 27.4595 31.8338 27.6984C32.0411 28.6225 32.206 30.6859 31.3923 31.4591Z" fill="url(#paint10_linear_127_14495)"/>
<path opacity="0.5" d="M31.3924 31.4592C30.3711 32.4297 27.2415 32.1864 27.0679 31.6362C27.0309 31.4557 29.0469 28.7757 30.361 28.014C31.6776 27.2532 31.6776 27.2532 31.6776 27.2532L31.8314 27.6975C32.0412 28.6225 32.2061 30.6859 31.3924 31.4592Z" fill="#DE376D"/>
<path opacity="0.5" d="M25.9754 28.3229C24.7899 26.4295 29.151 26.9484 29.151 26.9484L27.3763 24.1946C27.3763 24.1946 26.194 24.7484 25.307 25.7423C24.4191 26.7385 24.8122 27.4494 24.8122 27.4494L25.9754 28.3229Z" fill="#BE2F55"/>
<path opacity="0.7" d="M28.5425 32.1056C29.0502 32.1197 27.4853 31.4728 28.0018 30.5797C28.5159 29.6857 30.737 29.8239 31.1871 29.3622C31.6372 28.9006 31.0926 27.5927 31.0926 27.5927C31.0926 27.5927 29.4804 28.4673 28.2026 30.0482C26.9249 31.6291 27.0077 31.6505 27.1324 31.7389C27.258 31.8249 27.994 32.0906 28.5425 32.1056Z" fill="#DE376D"/>
<path d="M29.1484 31.9543C28.6987 31.8622 29.7066 31.3284 30.2065 31.2876C30.704 31.246 30.3367 31.8058 30.1335 31.8757C29.9269 31.9473 29.2712 31.979 29.1484 31.9543Z" fill="white"/>
<path d="M23.1244 30.1944C22.7584 30.5051 20.3838 29.7527 20.0149 29.4344C19.6436 29.1153 21.1385 25.4375 23.2461 23.4373C25.3537 21.4372 28.782 20.3532 29.1162 20.4232C29.4513 20.4908 30.6824 22.9242 30.3744 23.3105C30.0639 23.6959 27.1851 24.4086 25.4659 26.043C23.7435 27.6789 23.5245 29.8574 23.1244 30.1944Z" fill="url(#paint11_linear_127_14495)"/>
<path d="M23.1245 30.1944C23.5324 30.1043 25.2798 27.8 25.2798 27.8C25.2798 27.8 25.1984 26.8304 26.1488 25.9277C27.0993 25.0251 28.113 25.2885 28.113 25.2885C28.113 25.2885 30.3446 23.6014 30.3696 23.3088C30.3946 23.0161 27.8742 23.547 25.6479 25.5952C23.4217 27.6434 23.1245 30.1944 23.1245 30.1944Z" fill="url(#paint12_linear_127_14495)"/>
<path d="M23.7761 22.9741C22.6323 24.0572 24.7233 25.9258 25.024 25.9208C25.3223 25.9149 26.8764 24.5123 27.7611 24.0852C28.6458 23.6582 27.4658 21.3966 27.3237 21.2033C27.1825 21.0075 24.7707 22.0324 23.7761 22.9741Z" fill="white"/>
<path d="M28.1086 27.9413C27.7016 28.3745 28.6303 29.0216 28.8368 29.0269C29.0434 29.0321 30.2361 27.9884 30.685 27.7759C31.1354 27.5666 29.512 27.2828 29.0672 27.4227C28.6239 27.566 28.1086 27.9413 28.1086 27.9413Z" fill="white"/>
<path opacity="0.2" d="M20.4323 27.6506C20.297 27.9834 22.5032 29.2761 22.8977 29.354C23.293 29.4294 24.1163 27.2556 24.2381 27.0222C24.3607 26.7863 22.2681 25.6438 21.8573 25.6808C21.4473 25.7153 20.6023 27.2287 20.4323 27.6506Z" fill="#E02774"/>
<path d="M23.7758 22.9742C23.7758 22.9742 25.0054 23.6081 25.6081 23.0803C26.2107 22.5525 26.2263 21.5188 26.2263 21.5188C26.2263 21.5188 24.8633 21.9258 23.7758 22.9742Z" fill="white"/>
<path d="M29.3719 28.7875C28.9842 28.5832 30.0259 27.6172 30.6534 27.8716C30.6534 27.8716 29.9098 29.0702 29.3719 28.7875Z" fill="white"/>
<path opacity="0.5" d="M20.9492 29.8587C20.9492 29.8587 22.7739 30.2392 23.0701 30.1393C23.3663 30.0395 23.2128 29.3101 23.6413 28.4486C24.0664 27.5886 25.0419 28.1126 25.0419 28.1126C25.0419 28.1126 23.6619 29.9641 23.1269 30.1953C22.5894 30.4255 20.9492 29.8587 20.9492 29.8587Z" fill="#BE2F55"/>
<path opacity="0.5" d="M29.0605 23.587C28.4749 23.9674 28.3671 24.8447 28.5023 24.8656C28.6374 24.8865 30.1298 23.6949 30.3717 23.3096C30.6135 22.9244 29.8256 21.4226 29.8256 21.4226C29.8256 21.4226 30.1373 22.5458 30.0031 22.8982C29.8666 23.2498 29.0605 23.587 29.0605 23.587Z" fill="#BE2F55"/>
<path opacity="0.5" d="M7.92382 6.57237C8.02542 6.67174 11.275 10.1252 13.7663 12.8689C15.2879 14.5505 16.527 15.9639 16.581 16.1888C16.7308 16.7826 15.4035 20.4133 14.8711 19.9462C12.8018 17.2572 11.2655 14.5421 10.1699 12.2668C10.2868 12.1468 10.3394 11.938 10.0832 11.6189C9.9226 11.4161 9.79042 11.2949 9.68412 11.224" fill="white"/>
<path opacity="0.38" d="M20.7893 13.4283C20.1481 12.8208 16.7638 14.8639 16.5108 15.1574C16.257 15.4534 22.4106 21.6773 23.0439 22.1997C23.6763 22.7245 25.0987 21.5984 25.2503 21.5731C25.402 21.5477 23.1971 19.1229 22.0186 16.8263C20.8368 14.5312 20.7893 13.4283 20.7893 13.4283Z" fill="#B88974"/>
<path opacity="0.8" d="M9.61284 7.96269C9.61284 7.96269 15.9928 15.7099 21.2983 20.6464C21.2983 20.6464 17.3759 17.5641 16.013 16.175C14.6493 14.7884 9.61284 7.96269 9.61284 7.96269Z" fill="white"/>
<path d="M15.077 14.8041C15.5555 14.8462 14.5288 13.2838 13.8171 13.1035C13.1063 12.9209 14.7395 14.774 15.077 14.8041Z" fill="white"/>
<path opacity="0.2" d="M21.8897 25.0313C21.13 24.1182 18.8019 21.685 14.7814 20.5201C14.7814 20.5201 14.7482 20.4671 14.6874 20.3686C14.8853 20.2446 16.0872 19.5744 17.8382 20.0382C19.7168 20.5366 21.791 24.8315 21.8897 25.0313Z" fill="#B88974"/>
<path d="M11.8822 15.3573C11.0597 13.6759 12.3907 13.9952 13.5337 15.5086C14.6767 17.022 13.5801 18.5333 13.5068 18.4084C13.4335 18.2835 11.8822 15.3573 11.8822 15.3573Z" fill="white"/>
<path opacity="0.5" d="M8.5878 6.32683C8.31803 6.45256 11.3719 9.81684 11.3719 9.81684C12.0654 10.2703 14.8498 9.54573 14.8057 9.23931C14.7649 8.93133 8.86001 6.20197 8.5878 6.32683Z" fill="#A28993"/>
<path opacity="0.5" d="M20.7451 12.6531L21.4306 12.5305C21.4306 12.5305 22.2312 15.8082 23.1347 17.5542C24.0408 19.3011 21.9561 16.6012 20.7451 12.6531Z" fill="#BE2F55"/>
<path d="M16.6758 9.69921C16.6758 9.69921 16.4485 10.5119 16.579 10.7916C16.7109 11.0746 17.0744 10.9247 17.0744 10.9247C17.0744 10.9247 16.577 11.1118 16.4014 10.9969C16.2903 10.9243 16.2559 10.391 16.3746 10.0358C16.4385 9.8338 16.6602 9.74298 16.6758 9.69921Z" fill="#663F6D"/>
<path d="M9.5356 11.149C9.5356 11.149 9.72233 11.202 10.1235 11.5757C10.5248 11.9494 10.195 12.2429 10.195 12.2429C10.195 12.2429 10.2395 11.9955 10.0695 11.6962C9.89462 11.3952 9.5356 11.149 9.5356 11.149Z" fill="#776483"/>
<path opacity="0.3" d="M16.3521 15.0568C15.7226 15.161 13.5636 12.3084 13.5251 11.8942C13.4866 11.4801 18.2275 11.1968 19.1846 11.7417C20.1425 12.2841 20.4027 13.175 20.0444 13.3185C19.6869 13.4595 16.3521 15.0568 16.3521 15.0568Z" fill="white"/>
<path opacity="0.5" d="M19.6986 22.9735C19.6986 22.9735 17.5012 21.119 16.2169 20.6766C14.9325 20.2342 14.7564 20.0671 14.3632 19.6249C13.9691 19.1852 11.8202 15.4834 11.8202 15.4834C11.8202 15.4834 14.2324 19.899 14.7819 20.5176C14.7819 20.5176 17.8635 21.3252 19.6986 22.9735Z" fill="#862F68"/>
<path d="M20.4327 27.6505C20.4327 27.6505 21.3231 25.051 23.4739 22.9374C25.6272 20.8247 28.8927 20.4421 28.8927 20.4421C28.8927 20.4421 25.4861 21.3502 23.5998 23.1607C21.7144 24.9687 20.4327 27.6505 20.4327 27.6505Z" fill="url(#paint13_linear_127_14495)"/>
<defs>
<linearGradient id="paint0_linear_127_14495" x1="28.9609" y1="8.45337" x2="14.4101" y2="25.0208" gradientUnits="userSpaceOnUse">
<stop stop-color="#BEAFC0"/>
<stop offset="1" stop-color="#997A80"/>
</linearGradient>
<linearGradient id="paint1_linear_127_14495" x1="26.7828" y1="6.22564" x2="12.4073" y2="22.5935" gradientUnits="userSpaceOnUse">
<stop stop-color="#E0D9E1"/>
<stop offset="1" stop-color="#B9A4A8"/>
</linearGradient>
<linearGradient id="paint2_linear_127_14495" x1="7.42675" y1="23.936" x2="10.1798" y2="27.1358" gradientUnits="userSpaceOnUse">
<stop stop-color="#CE5411"/>
<stop offset="1" stop-color="#B42B00"/>
</linearGradient>
<linearGradient id="paint3_linear_127_14495" x1="3.85207" y1="29.7033" x2="7.50051" y2="26.5642" gradientUnits="userSpaceOnUse">
<stop stop-color="#FFA900"/>
<stop offset="1" stop-color="#FF9600"/>
</linearGradient>
<linearGradient id="paint4_linear_127_14495" x1="8.63376" y1="25.1297" x2="12.2866" y2="21.9869" gradientUnits="userSpaceOnUse">
<stop stop-color="#FF9600"/>
<stop offset="1" stop-color="#FFA900"/>
</linearGradient>
<linearGradient id="paint5_linear_127_14495" x1="8.79639" y1="25.4115" x2="10.0549" y2="24.3287" gradientUnits="userSpaceOnUse">
<stop offset="0.0503" stop-color="#FF3F00"/>
<stop offset="1" stop-color="#D95203"/>
</linearGradient>
<linearGradient id="paint6_linear_127_14495" x1="11.4164" y1="23.6113" x2="12.875" y2="22.3563" gradientUnits="userSpaceOnUse">
<stop stop-color="#FFDE00"/>
<stop offset="1" stop-color="#FFE834"/>
</linearGradient>
<linearGradient id="paint7_linear_127_14495" x1="8.86461" y1="7.48928" x2="26.1305" y2="21.204" gradientUnits="userSpaceOnUse">
<stop stop-color="#BEAFC0"/>
<stop offset="1" stop-color="#997A80"/>
</linearGradient>
<linearGradient id="paint8_linear_127_14495" x1="6.74733" y1="9.77555" x2="23.8053" y2="23.3251" gradientUnits="userSpaceOnUse">
<stop stop-color="#E0D9E1"/>
<stop offset="1" stop-color="#B9A4A8"/>
</linearGradient>
<linearGradient id="paint9_linear_127_14495" x1="25.3912" y1="28.2331" x2="28.4512" y2="25.3254" gradientUnits="userSpaceOnUse">
<stop stop-color="#CE5411"/>
<stop offset="1" stop-color="#B42B00"/>
</linearGradient>
<linearGradient id="paint10_linear_127_14495" x1="31.3282" y1="31.5188" x2="28.0128" y2="28.0298" gradientUnits="userSpaceOnUse">
<stop stop-color="#FFA900"/>
<stop offset="1" stop-color="#FF9600"/>
</linearGradient>
<linearGradient id="paint11_linear_127_14495" x1="26.5242" y1="26.9679" x2="23.2048" y2="23.4747" gradientUnits="userSpaceOnUse">
<stop stop-color="#FF9600"/>
<stop offset="1" stop-color="#FFA900"/>
</linearGradient>
<linearGradient id="paint12_linear_127_14495" x1="26.7977" y1="26.7924" x2="25.6541" y2="25.5889" gradientUnits="userSpaceOnUse">
<stop offset="0.0503" stop-color="#FF3F00"/>
<stop offset="1" stop-color="#D95203"/>
</linearGradient>
<linearGradient id="paint13_linear_127_14495" x1="24.87" y1="24.2637" x2="23.5445" y2="22.8689" gradientUnits="userSpaceOnUse">
<stop stop-color="#FFDE00"/>
<stop offset="1" stop-color="#FFE834"/>
</linearGradient>
</defs>
</svg>
