<svg width="90" height="68" viewBox="0 0 90 68" fill="none" xmlns="http://www.w3.org/2000/svg">
<path d="M87.7622 66.3101L2.08032 0.0371094H46.4177L87.7622 31.3605V66.3101Z" fill="#FF6838"/>
<path fill-rule="evenodd" clip-rule="evenodd" d="M47.9396 0L87.758 29.8633V31.9281L45.6793 0.000345469L47.9396 0ZM87.7617 67.5269L0 0.0322969L2.08311 0.0323958L87.7617 65.6829V67.5269Z" fill="#FFD166"/>
<g filter="url(#filter0_d_206_3796)">
<path d="M38.2951 11.255C38.6165 11.6366 38.7762 12.0698 38.7742 12.5547C38.7772 13.0332 38.6289 13.4651 38.3294 13.8504C37.8973 14.4062 37.3578 14.6961 36.7109 14.7201C36.0752 14.7427 35.41 14.484 34.7152 13.9439L31.6172 11.5355L36.7874 4.88476L39.7812 7.2121C40.457 7.73747 40.8641 8.3022 41.0025 8.90628C41.1472 9.51528 41.0133 10.085 40.6009 10.6156C40.2964 11.0072 39.9394 11.2514 39.5296 11.3484C39.1262 11.4502 38.7147 11.4191 38.2951 11.255ZM36.3158 8.8348L37.3769 9.65968C37.6422 9.8659 37.8885 9.96617 38.1158 9.9605C38.3544 9.95343 38.562 9.83621 38.7388 9.60883C38.9156 9.38145 38.978 9.1513 38.926 8.91836C38.8803 8.69034 38.7248 8.47322 38.4596 8.267L37.3985 7.44212L36.3158 8.8348ZM35.4474 12.4155C35.7189 12.6266 35.974 12.7287 36.2126 12.7216C36.4624 12.7131 36.6781 12.592 36.8598 12.3583C37.0414 12.1246 37.1049 11.8801 37.0501 11.6247C37.0016 11.3742 36.8416 11.1434 36.57 10.9323L35.3952 10.019L34.2536 11.4875L35.4474 12.4155ZM43.6436 12.297L42.5977 13.6423L44.7673 15.3289L43.7951 16.5794L41.6256 14.8929L40.4913 16.3518L42.9451 18.2594L41.9361 19.5573L37.8623 16.3904L43.0325 9.73962L47.1063 12.9066L46.0973 14.2045L43.6436 12.297ZM45.3427 22.312C44.8564 21.9339 44.482 21.5162 44.2194 21.0588C43.9569 20.6013 43.8291 20.1271 43.836 19.6359C43.8492 19.1497 44.0189 18.6837 44.345 18.2381L46.0693 19.5785C45.9031 19.8445 45.841 20.1003 45.8832 20.3458C45.9303 20.5851 46.0707 20.7955 46.3043 20.9772C46.5444 21.1638 46.7756 21.2574 46.998 21.2581C47.2253 21.2524 47.4151 21.1517 47.5673 20.9559C47.695 20.7916 47.7437 20.6117 47.7135 20.4159C47.6896 20.2251 47.6225 20.0311 47.5123 19.8339C47.4084 19.6417 47.2424 19.386 47.0143 19.0668C46.6879 18.6003 46.4405 18.1952 46.272 17.8514C46.1035 17.5076 46.0221 17.1302 46.0276 16.719C46.0331 16.3078 46.1979 15.8938 46.5219 15.477C47.0031 14.858 47.6029 14.5491 48.3214 14.5503C49.0448 14.5453 49.7665 14.8226 50.4866 15.3823C51.2192 15.9519 51.6723 16.5878 51.8458 17.2901C52.0241 17.9861 51.8861 18.659 51.4316 19.3089L49.6789 17.9463C49.8332 17.7218 49.8844 17.493 49.8324 17.2601C49.7853 17.0208 49.6481 16.8128 49.4207 16.6361C49.2249 16.4839 49.0253 16.4148 48.8218 16.4289C48.6232 16.4366 48.4479 16.5384 48.2956 16.7342C48.1287 16.949 48.0996 17.1949 48.2085 17.472C48.3173 17.7492 48.5324 18.1241 48.8539 18.597C49.1705 19.0761 49.4098 19.4851 49.572 19.824C49.7405 20.1677 49.8244 20.542 49.8238 20.9469C49.8232 21.3517 49.6682 21.7531 49.3589 22.151C49.0643 22.53 48.6988 22.7981 48.2624 22.9554C47.8324 23.1176 47.363 23.1479 46.8542 23.0462C46.3455 22.9446 45.8417 22.6999 45.3427 22.312ZM58.7712 21.9747L57.7622 23.2727L56 21.9028L51.8388 27.2556L50.2188 25.9962L54.38 20.6434L52.6178 19.2735L53.6268 17.9755L58.7712 21.9747ZM58.7766 32.7553C58.2902 32.3772 57.9158 31.9595 57.6533 31.5021C57.3907 31.0447 57.2629 30.5704 57.2698 30.0792C57.283 29.593 57.4527 29.1271 57.7789 28.6814L59.5032 30.0219C59.3369 30.2878 59.2749 30.5436 59.3171 30.7892C59.3641 31.0284 59.5045 31.2389 59.7382 31.4205C59.9782 31.6071 60.2094 31.7007 60.4318 31.7014C60.6592 31.6957 60.8489 31.595 61.0012 31.3992C61.1288 31.235 61.1775 31.055 61.1473 30.8592C61.1234 30.6684 61.0564 30.4744 60.9462 30.2773C60.8423 30.085 60.6763 29.8293 60.4482 29.5101C60.1218 29.0436 59.8743 28.6385 59.7059 28.2947C59.5374 27.951 59.4559 27.5735 59.4614 27.1623C59.4669 26.7512 59.6317 26.3371 59.9558 25.9203C60.437 25.3013 61.0368 24.9924 61.7553 24.9937C62.4787 24.9886 63.2004 25.2659 63.9204 25.8257C64.6531 26.3952 65.1061 27.0312 65.2796 27.7335C65.458 28.4294 65.3199 29.1024 64.8654 29.7522L63.1127 28.3897C63.267 28.1651 63.3182 27.9364 63.2662 27.7034C63.2192 27.4642 63.0819 27.2562 62.8546 27.0794C62.6588 26.9272 62.4591 26.8581 62.2557 26.8722C62.0571 26.88 61.8817 26.9818 61.7295 27.1776C61.5626 27.3923 61.5335 27.6382 61.6423 27.9154C61.7511 28.1925 61.9663 28.5675 62.2878 29.0403C62.6043 29.5194 62.8437 29.9284 63.0058 30.2673C63.1743 30.6111 63.2583 30.9854 63.2576 31.3902C63.257 31.7951 63.1021 32.1965 62.7927 32.5944C62.4981 32.9733 62.1327 33.2414 61.6963 33.3987C61.2662 33.5609 60.7968 33.5912 60.2881 33.4896C59.7794 33.388 59.2755 33.1432 58.7766 32.7553ZM67.3039 37.3932L64.8217 35.4636L63.5105 36.329L61.8147 35.0107L69.3913 30.2306L71.2671 31.6889L68.5033 40.2104L66.7885 38.8773L67.3039 37.3932ZM67.8592 35.8186L68.9277 32.743L66.2202 34.5444L67.8592 35.8186ZM71.8279 40.7886L73.9501 42.4383L72.9779 43.6889L69.2357 40.7797L74.4059 34.129L76.026 35.3884L71.8279 40.7886ZM79.5319 40.1962L78.4861 41.5415L80.6556 43.2281L79.6835 44.4787L77.5139 42.7921L76.3797 44.2511L78.8335 46.1586L77.8245 47.4566L73.7506 44.2896L78.9209 37.6389L82.9947 40.8058L81.9857 42.1037L79.5319 40.1962Z" fill="white"/>
</g>
<defs>
<filter id="filter0_d_206_3796" x="27.3579" y="1.98488" width="59.9182" height="51.1484" filterUnits="userSpaceOnUse" color-interpolation-filters="sRGB">
<feFlood flood-opacity="0" result="BackgroundImageFix"/>
<feColorMatrix in="SourceAlpha" type="matrix" values="0 0 0 0 0 0 0 0 0 0 0 0 0 0 0 0 0 0 127 0" result="hardAlpha"/>
<feOffset dy="1.40258"/>
<feGaussianBlur stdDeviation="2.10387"/>
<feComposite in2="hardAlpha" operator="out"/>
<feColorMatrix type="matrix" values="0 0 0 0 0 0 0 0 0 0 0 0 0 0 0 0 0 0 0.25 0"/>
<feBlend mode="normal" in2="BackgroundImageFix" result="effect1_dropShadow_206_3796"/>
<feBlend mode="normal" in="SourceGraphic" in2="effect1_dropShadow_206_3796" result="shape"/>
</filter>
</defs>
</svg>
